<?xml version="1.0" standalone="no"?>
<!DOCTYPE svg PUBLIC "-//W3C//DTD SVG 1.1//EN" "http://www.w3.org/Graphics/SVG/1.1/DTD/svg11.dtd" >
<svg xmlns="http://www.w3.org/2000/svg" xmlns:xlink="http://www.w3.org/1999/xlink" version="1.1">
<metadata>
Created by FontForge 20170731 at Thu Apr  1 10:49:40 2004
 By Aleksey,,,
Copr.1993, T-26 Chicago, IL- Jim Marcus, Designer
</metadata>
<defs>
<font id="VariatorOne" horiz-adv-x="490" >
  <font-face 
    font-family="Variator"
    font-weight="400"
    font-stretch="normal"
    units-per-em="1000"
    panose-1="2 0 5 6 4 0 0 2 0 4"
    ascent="800"
    descent="-200"
    x-height="579"
    cap-height="589"
    bbox="-28 -179 794 802"
    underline-thickness="20"
    underline-position="-163"
    unicode-range="U+0020-201D"
  />
<missing-glyph horiz-adv-x="1000" 
 />
    <glyph glyph-name=".notdef" horiz-adv-x="1000" 
 />
    <glyph glyph-name=".null" horiz-adv-x="0" 
 />
    <glyph glyph-name="nonmarkingreturn" horiz-adv-x="500" 
 />
    <glyph glyph-name="space" unicode=" " horiz-adv-x="500" 
 />
    <glyph glyph-name="exclam" unicode="!" horiz-adv-x="120" 
d="M104 319v417q0 9 -10 23t-22 14q-18 0 -27 -8.5t-12.5 -22t-3 -30t0.5 -32.5v-357l-23 -185q0 -21 4.5 -33.5t27.5 -12.5q13 0 23 16t17 40t12 52.5t8 54t4 43.5t1 21zM82 -50q0 7 -1 15t-5.5 15t-12.5 12t-23 5q-11 0 -19.5 -4.5t-14.5 -11.5t-9 -14t-3 -12
q0 -20 14 -33t28 -13q17 0 31.5 12t14.5 29z" />
    <glyph glyph-name="quotedbl" unicode="&#x22;" horiz-adv-x="295" 
d="M164 668q0 6 -6 17t-17 11t-20 -10.5t-17 -24.5t-15 -29.5t-13 -24.5q-36 -57 -48.5 -82t-12.5 -33q0 -11 6 -19.5t18 -8.5q9 0 19.5 11.5t19.5 27t17 32t13 26.5q20 41 38 68t18 39zM275 547q0 13 -6 20.5t-13 7.5q-11 0 -28 -13.5t-33 -31.5t-28 -36t-12 -26
q0 -14 7.5 -25.5t29.5 -11.5q18 0 33 17.5t26.5 39t17.5 40t6 19.5z" />
    <glyph glyph-name="numbersign" unicode="#" horiz-adv-x="570" 
d="M556 399q0 15 -9.5 19t-37.5 4h-64q-27 0 -41.5 11t-21.5 27.5t-9 35.5t-4.5 35.5t-7.5 27.5t-18 11q-19 0 -24 -10.5t-4.5 -26.5t3.5 -34.5t0.5 -34.5t-14.5 -26.5t-40 -10.5t-41.5 12t-18.5 30t-5 39t-1 39t-6 30t-21 12t-21.5 -11.5t-6 -28t1 -35t-1.5 -32.5
q-5 -25 -19.5 -34.5t-29.5 -14t-27 -9.5t-12 -21q0 -15 13.5 -19.5l30 -10t30.5 -17t14 -41.5q0 -28 -12.5 -42t-31 -20t-40 -7t-40 -2.5t-31 -6.5t-12.5 -19q0 -15 9.5 -21t23 -7.5t28 0t23.5 0.5q22 -2 33.5 -12.5t18.5 -23.5t13.5 -23t17.5 -10q13 0 22.5 13t20.5 28.5
t26.5 28.5t41.5 13q14 0 27 -6t24.5 -12.5t22 -12.5t19.5 -6q8 0 18.5 4.5t19.5 9.5t15.5 9.5l6.5 4.5q7 3 26 3.5t39 3t35.5 10t15.5 24.5q0 11 -9 17.5t-28 6.5h-51q-22 0 -41 11.5t-19 39.5q0 15 7.5 26.5t19 19t26.5 11t30 3.5l15.5 -2.5t33.5 -1.5t33.5 7.5t15.5 24.5z
M324 315q0 -26 -21 -43t-49 -17q-23 0 -39 16.5t-16 39.5q0 25 19.5 45t45.5 20q8 0 18.5 -5.5t19.5 -14.5t15.5 -20t6.5 -21z" />
    <glyph glyph-name="dollar" unicode="$" 
d="M466 157q0 43 -10.5 76t-27.5 56.5t-39.5 38t-47.5 19.5q-39 9 -75 10t-63.5 5t-44 16.5t-16.5 42.5q0 21 6.5 41t21.5 35.5t38.5 25.5t58.5 10q48 0 71.5 -10t36 -22.5t21.5 -22.5t29 -10q6 0 14.5 6t8.5 17q0 17 -15 32.5t-34.5 30t-38.5 28t-28 25.5q-6 9 -8.5 28.5
t-6 40t-12.5 36t-29 15.5q-26 0 -32 -14t-10 -36t-15.5 -49t-48.5 -54q-11 -8 -26 -23t-29 -36t-24 -48t-10 -59q0 -39 22 -60t53 -31t63 -12.5t53 -3.5q62 -5 100.5 -45t38.5 -122q0 -20 -7 -37.5t-20 -30.5t-30 -21t-36 -8q-8 0 -26 2t-38.5 5t-38.5 7t-27 9
q-21 10 -31.5 27.5t-19.5 34t-20 28.5t-31 12q-8 0 -17.5 -5t-18 -13t-14.5 -18t-6 -20q0 -23 12.5 -36t32 -22t42 -16t43.5 -18q34 -18 44 -41.5t13 -44.5t6.5 -35t24.5 -14q18 0 25 11t11.5 26t9.5 31t19 25q9 6 16.5 8t15.5 3t18 2t24 5q25 8 40.5 26t24 41.5t11.5 49.5
t3 50z" />
    <glyph glyph-name="percent" unicode="%" horiz-adv-x="550" 
d="M245 550q0 57 -20.5 91t-58.5 34q-27 0 -53.5 -6.5t-47.5 -22.5t-34 -43t-13 -67q0 -38 15 -62t34.5 -38.5t39 -20t27.5 -5.5q49 0 80 34.5t31 105.5zM528 401q0 9 -7 21t-21 12q-7 0 -15.5 -4t-16.5 -10.5t-13.5 -15t-5.5 -17.5q0 -14 4.5 -21t23.5 -7q18 0 34.5 12.5
t16.5 29.5zM407 591q0 23 -7.5 25.5t-15.5 2.5q-9 0 -16 -6.5t-11.5 -16t-8 -20t-5.5 -17.5q-12 -35 -18 -55.5t-10 -33.5t-8 -22t-11 -21t-19 -30.5t-32 -50.5q-2 -4 -15.5 -34.5t-30.5 -70.5t-34 -82t-28 -68t-12 -28v-6q0 -4 1.5 -9t5 -9t11.5 -4q13 0 21.5 7.5
t13.5 18.5t8.5 24t7.5 24q7 22 19.5 50t26 55.5t26.5 51.5t21 38q11 18 24 46.5t26.5 59.5t26 63t22 57.5t15.5 42t6 18.5zM505 100q0 22 -10.5 41t-27.5 32.5t-38.5 21t-44.5 7.5q-56 0 -88 -41.5t-32 -120.5q0 -16 4 -31t14.5 -27t28.5 -19t45 -7q40 0 68 17.5t46 41.5
t26.5 48t8.5 37zM194 536q0 -23 -16 -42t-39 -19q-15 0 -26 7.5t-19 18t-12 23t-4 21.5q0 7 5 18t13.5 21.5t20.5 18t26 7.5q10 0 19 -8t16 -19t11.5 -24t4.5 -23zM435 86q0 -8 -5 -20t-14 -23t-22 -19t-28 -8q-9 0 -18.5 5t-16.5 13t-11.5 18t-4.5 20q0 15 7 28t17.5 22.5
t21.5 14.5t19 5q9 0 18.5 -4t17.5 -11.5t13.5 -18t5.5 -22.5z" />
    <glyph glyph-name="ampersand" unicode="&#x26;" horiz-adv-x="485" 
d="M464 226q0 34 -12.5 58.5t-30 40.5t-36.5 23.5t-32 7.5q-18 0 -30 -5t-22.5 -11t-22 -11t-27.5 -5q-22 0 -36.5 14t-14.5 41q0 28 13.5 44t34.5 27.5t44.5 21t44.5 24t34.5 37t13.5 60.5q0 21 -7.5 37.5t-19 28t-25.5 17t-27 5.5q-33 0 -61.5 -16t-51.5 -43t-41 -62
t-31 -74q-3 -11 -19.5 -38t-35 -62.5t-33 -75t-14.5 -74.5v-121q0 -36 18 -61t46 -40.5t62.5 -22t67.5 -6.5q39 0 60 4.5t35.5 9.5t28.5 9.5t39 4.5h51q14 0 23 6.5t9 16.5q0 8 -3.5 19t-8 21.5t-8 19.5t-3.5 14q0 8 4.5 23.5t9.5 32.5t9.5 33.5t4.5 26.5zM320 579
q0 -17 -10.5 -30t-23.5 -22t-25 -13.5t-15 -4.5q-23 0 -28 12t-5 25l3.5 10t12 22.5t23 22.5t36.5 10q16 0 24 -9.5t8 -22.5zM399 222q0 -24 -11.5 -42.5t-34.5 -18.5q-6 0 -16.5 4.5t-21.5 14t-19 23.5t-8 33q0 23 19 39t41 16q24 0 37.5 -20t13.5 -49zM311 83
q0 -9 -6.5 -16.5t-16.5 -13t-22.5 -9t-24.5 -3.5q-76 0 -119 22.5t-43 84.5v92q0 6 3 23t9.5 36t17.5 33.5t26 14.5t20.5 -11.5t11 -31.5t15 -46t31.5 -55q15 -20 32 -36.5t32 -31t24.5 -27.5t9.5 -25z" />
    <glyph glyph-name="quotesingle" unicode="'" horiz-adv-x="215" 
d="M198 585q0 23 -14.5 32t-32.5 9q-23 0 -45 -15.5t-40 -36.5t-29 -43t-11 -35q0 -17 11 -29t31 -12q23 0 46 17t42 39.5t30.5 43.5t11.5 30z" />
    <glyph glyph-name="parenleft" unicode="(" horiz-adv-x="540" 
d="M404 21q0 16 -10 28.5t-24 22t-29 16.5t-25 12q-47 23 -74.5 53.5t-41 64t-16.5 67t-1 64t6 56t4 40.5q0 9 3.5 16t8 13.5t8 12.5t3.5 14q0 19 -11.5 25t-25.5 9t-25.5 7.5t-11.5 18.5q0 29 18.5 46.5t41.5 22.5q63 15 101 20.5t59 8.5t28 7t7 15q0 10 -5.5 17
t-14.5 11.5t-20 6.5t-21 2q-54 0 -102 -18t-84.5 -42.5t-60.5 -49.5t-31 -38q-3 -6 -6 -19.5t-6 -31t-4.5 -37t-1.5 -37.5q0 -49 10.5 -103.5t29 -103.5t44 -86.5t55.5 -52.5q71 -36 102 -57.5t42 -33t13.5 -15.5t16.5 -4q23 0 37 10.5t14 21.5z" />
    <glyph glyph-name="parenright" unicode=")" horiz-adv-x="475" 
d="M62 722q0 -17 10 -29t24 -21.5t29 -16.5t25 -12q47 -24 74.5 -54t41 -63.5t16.5 -67t1 -64t-6 -56t-4 -40.5q0 -9 -3.5 -16t-8 -13.5t-8 -12.5t-3.5 -14q0 -19 11.5 -25.5t25.5 -9.5t25.5 -7t11.5 -18q0 -29 -18.5 -46.5t-41.5 -22.5q-63 -15 -101 -20.5t-59 -8.5t-28 -7
t-7 -15q0 -10 5.5 -17t14.5 -11.5t20 -6.5t21 -2q54 0 101.5 18t84.5 42.5t61 49.5t31 38q3 6 6 19.5t6 31t4.5 37t1.5 37.5q0 49 -10.5 103.5t-29 103t-44 86.5t-55.5 53q-71 36 -102 57.5t-42 33t-13.5 15.5t-16.5 4q-23 0 -37 -10.5t-14 -21.5z" />
    <glyph glyph-name="asterisk" unicode="*" horiz-adv-x="370" 
d="M347 402q0 14 -12.5 18.5t-27 8t-27 11t-12.5 27.5q0 13 3 19.5t6.5 11.5t6.5 10.5t3 14.5q0 12 -12 18t-22.5 7.5t-12.5 1.5q-10 6 -15.5 16t-10 20t-10 17.5t-15.5 7.5q-15 0 -18.5 -14t-6 -30.5t-9.5 -30t-30 -13.5q-12 0 -20.5 2.5t-14.5 3t-9 -2.5t-3 -13v-41
q0 -19 -11.5 -27t-25.5 -12.5t-25.5 -9t-11.5 -16.5q0 -8 3 -13t6.5 -10.5t6.5 -14t3 -23.5v-41q0 -8 4 -13.5t9 -5.5q12 0 20 6t15 12.5t15 12.5t20 6q15 0 23.5 -12t8.5 -25q0 -16 -4 -29t-9.5 -23.5t-9.5 -19t-4 -16.5q0 -11 7 -24t25 -13q21 0 28.5 11t8 27.5t-2 35.5
t-1.5 35.5t8.5 27.5t28.5 11q13 0 23 -4.5t18.5 -9.5t16 -9.5t16.5 -4.5q11 0 18.5 4.5t9.5 9.5q3 7 -0.5 25.5t0.5 35.5q1 4 6 9.5t11 11.5t10.5 12.5t4.5 12.5z" />
    <glyph glyph-name="plus" unicode="+" horiz-adv-x="470" 
d="M437 341q0 15 -10.5 19t-36.5 4h-74q-33 0 -48 12.5t-19.5 31.5t-3 41.5t2 41.5t-4.5 31.5t-24 12.5t-23 -18t-4 -43q0 -24 -1 -50t-14 -42q-14 -17 -39 -22.5t-49 -8.5t-42 -9t-18 -25q0 -17 5.5 -22t12 -4t12.5 4.5t7 3.5h65q29 0 44.5 -14.5t15.5 -55.5
q0 -10 -3.5 -31.5t-3.5 -43.5q0 -21 6 -37.5t24 -16.5q22 0 25.5 17.5t2 44.5t0 58.5t18.5 59.5q10 17 27 22.5t37 5.5t40 -2.5t36 -1.5t26.5 9t10.5 28z" />
    <glyph glyph-name="comma" unicode="," horiz-adv-x="215" 
d="M193 35q0 23 -14.5 32t-32.5 9q-23 0 -45 -15.5t-40 -36.5t-29 -43t-11 -35q0 -17 11 -29t31 -12q23 0 46 17t42 39.5t30.5 43.5t11.5 30z" />
    <glyph glyph-name="hyphen" unicode="-" 
d="M438 364q0 8 -13 15t-33 12t-43 8.5t-43 6t-34 3.5l-14 1h-177q-17 0 -27 -9.5t-10 -17.5q0 -4 8.5 -16t28.5 -12h153l153 -19q17 0 34 4t17 24z" />
    <glyph glyph-name="period" unicode="." horiz-adv-x="190" 
d="M130 18q0 17 -10.5 27t-21.5 10q-17 0 -29.5 -10t-12.5 -27q0 -19 13 -30t24 -11q20 0 28.5 14.5t8.5 26.5z" />
    <glyph glyph-name="slash" unicode="/" horiz-adv-x="495" 
d="M482 533q0 23 -24 23q-11 0 -21.5 -8.5t-19.5 -19.5t-15.5 -20.5t-7.5 -11.5q-23 -29 -40 -49t-34.5 -39.5t-39 -42t-53.5 -54.5q-20 -20 -46.5 -52.5t-52.5 -67.5t-49.5 -67.5t-37 -51.5t-14.5 -21q0 -11 10.5 -21.5t17.5 -10.5q12 0 20.5 5.5t15 14.5t12 19.5
t12.5 20.5q5 7 11 15t20 26.5t41.5 53t76.5 95.5q32 40 70 80.5t71 75.5t55 63.5t22 44.5z" />
    <glyph glyph-name="zero" unicode="0" horiz-adv-x="705" 
d="M695 531q0 26 -13 31.5t-24.5 1.5t-13.5 -5h-78q-27 0 -42.5 6t-28 12.5t-28.5 12.5t-45 6q-46 0 -94.5 -16.5t-92 -48.5t-77.5 -78.5t-51 -106.5q-8 -29 -14.5 -50t-10 -41t-4 -42t4.5 -53q6 -43 -2.5 -73t-21.5 -52t-24.5 -37t-11.5 -28q0 -12 6.5 -20t16.5 -8
q18 0 27.5 10t17.5 22.5t19.5 22.5t33.5 10q19 0 39 -12.5t47 -27t65 -27t94 -12.5q54 0 96.5 15.5t74.5 41.5t54 60t35.5 70t18.5 72t4 66v24v44v56v61q0 22 3.5 37.5t8 26t8 17.5t3.5 12zM487 503q0 -13 -20 -30.5t-47.5 -36.5t-57 -39t-47.5 -38q-45 -45 -68.5 -75.5
t-37 -48.5t-22.5 -25.5t-25 -7.5q-8 0 -13 4t-8.5 9.5t-5 11t-1.5 7.5q0 11 8 38.5t24.5 61.5t41 70.5t58.5 66.5t77.5 49.5t96.5 19.5q5 0 13 -1.5t15.5 -5.5t13 -11.5t5.5 -18.5zM621 336q0 -58 -12.5 -119t-39.5 -110.5t-70.5 -81.5t-104.5 -32q-4 0 -18.5 1.5t-33.5 4.5
t-40 8.5t-38.5 14.5t-29 21.5t-11.5 28.5q0 14 37.5 65.5t115.5 129.5q4 4 17.5 16.5t32 29t40.5 34.5t43 33t40 25t31 10q18 0 27 -9t12 -21.5t2.5 -26t-0.5 -22.5z" />
    <glyph glyph-name="one" unicode="1" horiz-adv-x="280" 
d="M268 51q0 17 -9 26t-22.5 13.5t-29 8.5t-29 11.5t-22.5 21.5t-9 40q0 36 3 71t6.5 63t6.5 46t3 19v195q0 8 -4 18.5t-12 19.5t-19.5 15.5t-25.5 6.5q-13 0 -27.5 -5.5t-27 -14.5t-20.5 -19.5t-8 -20.5q0 -17 6.5 -24.5t16.5 -12.5t21 -9t21 -14t16.5 -28.5t6.5 -50.5
q0 -17 -2 -37t-5 -37t-5 -29t-2 -13v-98q0 -26 -6.5 -53.5t-14.5 -51.5t-14.5 -41.5t-6.5 -24.5q0 -22 13.5 -41t47.5 -19q22 0 48.5 7t50 17.5t39 22.5t15.5 22z" />
    <glyph glyph-name="two" unicode="2" horiz-adv-x="535" 
d="M530 -20q0 16 -12.5 28t-28 20t-28.5 12.5t-14 4.5q-78 26 -135.5 48.5t-114.5 44.5l-9.5 3t-21 9t-21 14.5t-9.5 19.5q0 10 6.5 19t27.5 26t61.5 46.5t108.5 80.5q27 20 53 50t46 62t32.5 61.5t12.5 48.5q0 12 -5 27.5t-20.5 29t-46 22.5t-81.5 9q-75 0 -125 -22.5
t-80 -50.5t-42.5 -53.5t-12.5 -30.5q0 -27 20 -44t50 -17q43 0 60 12t22 30t4.5 39.5t6 39.5t28 30t69.5 12q11 0 25.5 -1t27.5 -6t22 -15t9 -29q0 -39 -29 -76.5t-72 -74.5t-94 -72.5t-94 -70.5t-72 -69.5t-29 -68.5q0 -13 14 -25t36 -23t48.5 -20.5t50.5 -17t43 -13
t26 -7.5q58 -18 96.5 -32.5t65 -25t43 -16t31.5 -5.5q17 0 34 7.5t17 29.5zM359 179q0 22 -14 29.5t-23 7.5q-11 0 -22 -9.5t-11 -17.5q0 -14 12.5 -25.5t24.5 -11.5q11 0 22 9.5t11 17.5z" />
    <glyph glyph-name="three" unicode="3" horiz-adv-x="555" 
d="M543 112q0 18 -4.5 40t-12.5 44.5t-19 43t-24 34.5q-25 27 -52 39.5t-49.5 20t-37 16.5t-14.5 30q0 22 13.5 32.5t30 21t30.5 26t14 46.5q0 19 -8.5 37t-22 31t-31 21t-35.5 8h-116q-41 0 -76.5 -3t-62 -8.5t-41.5 -14t-15 -20.5q0 -7 0.5 -12t4 -8t11 -5t21.5 -3l200 23
q18 0 36.5 -7t18.5 -25q0 -23 -19 -37t-47 -23.5t-61.5 -17t-61.5 -18t-47 -27.5t-19 -44t21 -38t52 -14.5t67.5 -4.5t68.5 -8q66 -15 104 -41t57 -51t24 -43l5 -18q0 -13 -4 -26t-14 -23.5t-26 -17.5t-40 -7q-37 0 -63.5 7.5t-44.5 16.5t-28.5 17t-16.5 10q-8 2 -21 0
t-30 0l-120 37q-11 0 -20.5 -4.5t-16 -11t-10.5 -14t-4 -12.5q0 -21 19.5 -34.5t48 -22.5t59.5 -16t54 -15q43 -15 74 -25t54 -16t39.5 -8t31.5 -2q33 0 64.5 6t56.5 22t40 44t15 72zM274 176q0 5 -3.5 12.5t-9.5 14t-13.5 11t-14.5 4.5q-11 0 -19 -4t-13 -9.5t-7.5 -10.5
t-2.5 -8q0 -6 3 -15t7.5 -17t10 -13.5t11.5 -5.5q12 0 21 6t16 13t10.5 13.5t3.5 8.5z" />
    <glyph glyph-name="four" unicode="4" horiz-adv-x="715" 
d="M704 173q0 15 -12.5 25t-32.5 16t-44 9t-47 4.5t-42.5 2.5t-29.5 3q-25 4 -35.5 20.5t-13.5 38.5t-2 46.5t-0.5 45.5t-9 34.5t-27.5 13.5q-22 0 -31.5 -12t-13 -30t-4.5 -39t-7.5 -39t-20.5 -30t-44 -12h-70q-6 0 -23.5 -2.5t-36 -2t-32.5 7t-14 25.5q0 15 9.5 28
t22.5 23.5t26 18.5t21 13q9 6 25 22t34.5 36.5t37.5 42.5t34.5 41t25.5 32t10 16q0 28 -24 28q-17 0 -27.5 -7.5t-25.5 -26t-41.5 -51t-76.5 -82.5l-12 -9.5t-29.5 -24t-38 -33t-38 -37.5t-29 -36.5t-11.5 -30.5q0 -10 5.5 -18.5t13 -15t16.5 -10t16 -3.5h144q22 0 45.5 -1
t43 -7.5t32.5 -20.5t13 -40q0 -20 -2 -36t-5 -31t-5 -31t-2 -37q0 -31 9.5 -54.5t28.5 -23.5q23 0 35 18.5t17.5 46.5t8 60t8 60t15.5 46.5t31 18.5q16 0 24.5 -3.5t14.5 -8.5t13.5 -11.5t22 -11.5t39.5 -8.5t67 -3.5q23 0 37 12t14 26z" />
    <glyph glyph-name="five" unicode="5" horiz-adv-x="595" 
d="M593 228q0 25 -15 51.5t-39 51.5t-55 46.5t-63.5 37.5t-63.5 25.5t-56 9.5q-35 0 -53 -3.5t-28 -8t-16.5 -8t-18.5 -3.5q-22 0 -38.5 13.5t-16.5 37.5q0 17 8 29t20.5 20t27 12t27.5 4h111q22 0 44.5 -3t43 -6t36.5 -6t25 -3q14 0 23.5 4.5t15.5 11t9 13.5t3 12
q0 22 -16 29.5t-40 7.5h-343q-22 0 -41 -16t-19 -39q0 -26 3.5 -62t11 -68.5t20 -55.5t30.5 -23q10 0 27 8.5l38 19t44.5 19.5t47.5 9q17 0 41 -7t49.5 -19.5t51 -28.5t45.5 -34t32.5 -37t12.5 -37q0 -21 -26.5 -42.5t-60 -39t-64 -28t-39.5 -10.5q-18 0 -25.5 8t-10.5 20.5
t-3.5 27t-3.5 27t-10.5 20.5t-25.5 8q-22 0 -30.5 -8.5t-10.5 -21t-1 -27.5t-2 -28.5t-13.5 -23t-35.5 -11.5q-12 -1 -37 -4t-49.5 -10.5t-43 -20t-18.5 -30.5q0 -23 18.5 -35t37.5 -12q29 0 71.5 9.5t84 21.5t75.5 23.5t47 15.5q83 25 132.5 51.5t75.5 49.5t34 40.5t8 25.5
z" />
    <glyph glyph-name="six" unicode="6" horiz-adv-x="545" 
d="M523 186q0 23 -11.5 45.5t-31.5 40t-47 28.5t-58 11h-181q-2 0 -17.5 -3t-33 -0.5t-32 15t-14.5 44.5q0 21 11 51t23.5 62t23.5 61.5t11 47.5q0 29 -13 42.5t-29 13.5t-32 -14.5t-31.5 -36t-29 -48t-24 -50t-16.5 -41.5t-6 -24q0 -14 8.5 -24.5t19 -21.5t19.5 -25t9 -35
q0 -8 -3.5 -29t-8 -47t-8 -52t-3.5 -44q0 -29 7 -55t21 -45.5t35 -31t48 -11.5h153q40 0 82.5 18t77.5 44.5t58 57t23 56.5zM449 186q0 -9 -13 -29.5t-43.5 -40.5t-80.5 -35.5t-123 -15.5q-42 0 -60 17t-18 53q0 10 4.5 29.5t14 38.5t23.5 33.5t32 14.5h167q15 0 32 -4
t31.5 -12t24 -20.5t9.5 -28.5z" />
    <glyph glyph-name="seven" unicode="7" horiz-adv-x="625" 
d="M598 491q0 12 -6.5 20.5t-15.5 13t-19.5 6.5t-18.5 2q-54 0 -82.5 -9l-28.5 -9h-380q-5 0 -12 -1.5t-13.5 -5.5t-11.5 -10t-5 -16q0 -8 5.5 -13.5t13 -8.5t16.5 -4.5t16 -1.5q18 0 25.5 2t10 5t1.5 5t0 2h292q10 0 20.5 -0.5t19.5 -3.5t14.5 -9.5t5.5 -18.5
q0 -15 -14.5 -31t-34.5 -31t-41.5 -29t-34.5 -25q-20 -16 -39.5 -36t-38 -38t-35 -30t-30.5 -12q-18 0 -31 8t-23.5 17.5t-20.5 17.5t-23 8q-11 0 -21.5 -8t-10.5 -25q0 -18 9.5 -27.5t20.5 -17.5t20.5 -18t9.5 -29q0 -26 -14 -45.5t-30.5 -37t-30 -34.5t-13.5 -36
q0 -11 10 -19.5t22 -8.5q21 0 34.5 18t25.5 40t25.5 40t35.5 18q16 0 27.5 -8t21.5 -17.5t20 -17.5t24 -8q16 0 28.5 12t12.5 25q0 16 -10 25t-22 17t-22 18t-10 28q0 13 8.5 27t20.5 27t24.5 24t20.5 19l190 167q9 7 24.5 17.5t30.5 22t26 24t11 24.5z" />
    <glyph glyph-name="eight" unicode="8" horiz-adv-x="767" 
d="M193 383q0 10 -5.5 18.5t-17.5 8.5q-10 0 -23.5 -8t-13.5 -19q0 -7 10 -20t23 -13q6 0 16.5 7.5t10.5 25.5zM509 174q0 30 -5 48t-13 29t-17 17.5t-17 12.5t-13 15.5t-5 25.5q0 12 5 24t11.5 23.5t11.5 22t5 18.5q0 16 -8.5 27t-15.5 11q-20 0 -28 -16t-18.5 -38t-30 -45
t-62.5 -36q-29 -9 -58 -16t-52.5 -11.5t-40 -7t-20.5 -2.5q-16 0 -28 1.5t-20.5 9t-12.5 22t-4 41.5q0 49 17 88.5t45 67.5t62.5 42.5t70.5 14.5q33 0 53.5 -5t34.5 -11t25.5 -11t25.5 -5t23 6.5t9 16.5q0 14 -19.5 26.5t-46.5 22.5t-56.5 15.5t-48.5 5.5q-70 0 -118 -29
t-77.5 -73t-42.5 -95t-13 -95q0 -29 7.5 -51t16 -40t16 -34t7.5 -33q0 -26 -5 -43t-5 -31q0 -31 18.5 -54.5t47 -41t62.5 -29.5t66 -19.5t57.5 -10.5t36.5 -3q42 0 73 20.5t52 53.5t31.5 74.5t10.5 83.5zM444 137q0 -13 -6.5 -34t-20.5 -41.5t-37.5 -35t-56.5 -14.5
q-17 0 -50.5 4.5t-68 16t-60 30t-25.5 46.5q0 2 2 10t5.5 17.5t7.5 17.5t8 11q14 9 31 12t33 3.5t30 0.5t22 2q18 5 31 11.5l24 12t21 9.5t22 4q19 0 35.5 -9.5t28 -22.5t18 -27.5t6.5 -23.5z" />
    <glyph glyph-name="nine" unicode="9" horiz-adv-x="485" 
d="M478 481q0 7 -2.5 21.5t-7 30.5t-10.5 30t-13 20q-17 15 -39.5 18.5t-39.5 13.5q-12 7 -21.5 18t-21.5 21.5t-28 18t-40 7.5q-32 0 -73 -19.5t-77 -49.5t-61 -66t-25 -69v-116q0 -19 14.5 -41.5t36 -42t46.5 -33t46 -13.5h102q14 0 25 5t21.5 11.5t21.5 11.5t25 5
q26 0 31.5 -12.5t5.5 -43.5q0 -43 -3 -75t-6 -55.5t-6 -39t-3 -24.5q0 -26 12 -41t29 -15q22 0 34.5 14.5t12.5 31.5q0 19 -3 29t-6.5 23.5t-6.5 37t-3 68.5q0 65 5 119t11.5 95.5t11.5 68.5t5 37zM371 467q0 -51 -12.5 -85t-34 -54t-50 -28.5t-61.5 -8.5q-70 0 -102 30
t-32 95q0 42 17.5 77.5t43 61.5t55.5 41t55 15q4 0 23 -4t41 -18.5t39.5 -43t17.5 -78.5z" />
    <glyph glyph-name="colon" unicode=":" horiz-adv-x="190" 
d="M120 418q0 17 -10.5 27t-21.5 10q-17 0 -29.5 -10t-12.5 -27q0 -19 13 -30t24 -11q20 0 28.5 14.5t8.5 26.5zM166 251q-1 4 -0.5 7t0.5 7q0 9 -6 14t-12 5q-8 0 -13.5 -4.5t-5.5 -9.5q0 -8 4.5 -13.5t9.5 -5.5q8 0 11.5 -0.5t11.5 0.5zM106 177q0 22 -14 34.5t-28 12.5
q-23 0 -34.5 -16.5t-11.5 -30.5q0 -12 5 -20.5t12 -14.5t14 -8.5t11 -2.5q20 0 33 13.5t13 32.5z" />
    <glyph glyph-name="semicolon" unicode=";" horiz-adv-x="220" 
d="M162 385q0 7 -1 15t-5.5 15t-12.5 12t-23 5q-11 0 -19.5 -4.5t-14.5 -11.5t-9 -14t-3 -12q0 -20 14 -33t28 -13q17 0 31.5 12t14.5 29zM171 89q0 8 -2 18.5t-7 19.5t-13 15.5t-20 6.5t-21 -5.5t-14.5 -13t-8 -15.5t-2.5 -13q0 -4 3.5 -18t6.5 -24.5t4 -12.5
q0 -22 -12.5 -34.5t-27 -21.5t-27 -17.5t-12.5 -23.5q0 -17 10.5 -29.5t31.5 -12.5q22 0 42 18.5t35.5 46t24.5 59t9 57.5z" />
    <glyph glyph-name="less" unicode="&#x3c;" horiz-adv-x="390" 
d="M53 341q0 -8 4.5 -16.5t16.5 -21.5t33.5 -31.5t56.5 -46.5q17 -14 34.5 -31t34 -32t32 -25t29.5 -10q13 0 18 6.5t5 12.5q0 21 -22.5 42.5t-49.5 42.5t-49.5 41.5t-22.5 40.5q0 15 14.5 24t36 15.5t47 12.5t47 15t36 22.5t14.5 35.5q0 14 -9 23.5t-19 9.5q-18 0 -30 -10
t-26.5 -22.5t-35.5 -25t-56 -17.5q-26 -4 -51 -6.5t-44.5 -8t-31.5 -14.5t-12 -26z" />
    <glyph glyph-name="equal" unicode="=" 
d="M463 384q0 13 -23.5 22t-53 14.5t-56.5 8t-34 2.5h-231q-4 0 -10.5 -1.5t-12.5 -5t-10 -9t-4 -12.5q0 -10 11.5 -19t25.5 -9h218q7 0 30 -3t47 -6t43 -6l19 -3q17 0 29 7.5t12 19.5zM361 194q0 19 -11.5 24t-25.5 4t-25.5 -5l-11.5 -4q-40 0 -59.5 0.5t-36.5 0.5h-39
t-69 -1q-3 0 -15 -2t-25 -6t-23.5 -10.5t-10.5 -14.5q0 -9 5 -15t11.5 -9.5t12.5 -5.5t8 -2q31 0 162 9q34 3 62 4.5t48.5 5t31.5 9.5t11 18z" />
    <glyph glyph-name="greater" unicode="&#x3e;" horiz-adv-x="390" 
d="M353 270q0 7 -4.5 16t-16.5 22t-34 31.5t-56 46.5q-17 13 -34.5 30t-34 32t-32.5 25.5t-29 10.5t-18 -6.5t-5 -12.5q0 -21 22.5 -42.5t49.5 -42.5t49.5 -42t22.5 -40q0 -15 -14.5 -24t-36 -15.5t-47 -12.5t-47 -15t-36 -22.5t-14.5 -35.5q0 -14 9 -23.5t19 -9.5
q18 0 30 10t26.5 22.5t35.5 25t56 17.5q26 4 51 6.5t44.5 8t31.5 14.5t12 26z" />
    <glyph glyph-name="question" unicode="?" horiz-adv-x="535" 
d="M255 280l9.5 13t24 32.5t32 43.5t34.5 47q27 20 53 50t46 62t32.5 61.5t12.5 48.5q0 12 -5 27.5t-20.5 29t-46 22.5t-81.5 9q-75 0 -125 -22.5t-80 -50.5t-42.5 -53.5t-12.5 -30.5q0 -27 20 -44t50 -17q43 0 60 12t22 30t4.5 39.5t6 39.5t27.5 30t70 12q11 0 25.5 -1
t27.5 -6t22 -15t9 -29q0 -39 -20.5 -71t-50.5 -60.5t-65 -56.5t-64.5 -59.5t-48 -68.5t-16.5 -84q1 -13 -0.5 -26t-1.5 -25q0 -11 3.5 -21t13.5 -18q22 -17 48 -12.5t47 22.5q16 13 16 29t-7 34t-16.5 37t-12.5 40zM352 15q0 7 -1 15t-5.5 15t-12.5 12t-23 5
q-11 0 -19.5 -4.5t-14.5 -11.5t-9 -14t-3 -12q0 -20 14 -33t28 -13q17 0 31.5 12t14.5 29z" />
    <glyph glyph-name="A" unicode="A" horiz-adv-x="585" 
d="M583 -134q0 16 -7 25.5t-18 17t-25 16.5t-28 24q-29 31 -46 56t-28.5 45t-18.5 35t-14 27q-10 16 -19 25.5t-9 20.5q0 15 6 19t27 4h51q13 0 26.5 3.5t24 10.5t17 16.5t6.5 20.5t-7 20.5t-18 16t-25 10.5t-29 4q-18 0 -28.5 -2t-17.5 -5t-13 -5t-15 -2q-21 0 -38.5 12.5
t-22.5 29.5l-74 232q-3 9 -5 29t-8 40t-18 35.5t-34 15.5q-14 0 -24.5 -5.5t-17 -13.5t-10 -17.5t-3.5 -18.5v-121q0 -10 -6 -30.5t-13.5 -42t-14.5 -39t-8 -22.5q-11 -37 -25 -58t-27 -33t-22 -19t-9 -16q0 -14 9 -27.5t9 -27.5q0 -12 -3.5 -30.5t-8 -38.5t-8 -38t-3.5 -28
q0 -6 0.5 -14t3.5 -15t9.5 -12t18.5 -5q19 0 29 14t15 33.5t7 41t5 36.5q4 19 11 34t20 25t33.5 15t51.5 5q38 0 58 -5t32 -18t22 -35.5t27.5 -57.5t48.5 -84t85 -115q8 -10 15 -19.5t14.5 -16.5t17 -11t23.5 -4q17 0 31.5 8t14.5 29zM254 292q0 -18 -18.5 -25t-36.5 -7
q-26 0 -43.5 9t-17.5 28l5.5 22.5t13.5 49.5t17 49.5t15 22.5t14 -15.5t17 -37t16.5 -44t12.5 -37t5 -15.5z" />
    <glyph glyph-name="B" unicode="B" horiz-adv-x="540" 
d="M23 394q0 10 -5.5 17t-12.5 7q-8 0 -15.5 -6t-7.5 -13q0 -16 9 -22l9 -6q10 0 16.5 8t6.5 15zM533 316q0 36 -23.5 55t-50.5 19q-30 0 -50.5 -5t-42.5 -5h-17t-16.5 2t-12.5 7t-5 15q0 13 21 24.5t46.5 26t46.5 32t21 42.5q0 30 -24.5 46.5t-57.5 25t-66.5 11t-50.5 5.5
q-64 9 -107 19.5t-68.5 19.5t-36.5 15l-11 6q-12 0 -22 -10.5t-10 -21.5q0 -23 6.5 -40t16.5 -32.5t21 -33.5t21 -42.5t16.5 -59t6.5 -84.5v-16t-2.5 -15t-7.5 -11.5t-14 -4.5q-2 0 -8.5 2t-13.5 2t-13 -3.5t-6 -14.5q0 -12 5 -15t13 -2.5t16.5 2t16.5 -2t13 -15t5 -36.5
q0 -17 1.5 -31t3.5 -28t3.5 -29t1.5 -33q0 -29 -6 -49t-13 -33.5t-13 -22t-6 -15.5q0 -3 3.5 -11t9.5 -17t14.5 -16t19.5 -7q10 0 18 4.5t15 11t13.5 12.5t13.5 9q5 2 9 2.5t10.5 1.5t17.5 5t31.5 14t52 28t78.5 47q31 18 61 54.5t53.5 75t38 72.5t14.5 48zM343 515
q0 -3 -19.5 -23t-68.5 -42q-12 -5 -25.5 -14.5t-27 -18.5t-25 -16t-19.5 -7q-7 0 -11 7.5t-5.5 19t-2 24.5t-0.5 24q0 19 0.5 33.5t4.5 24.5t12.5 15t24.5 5h148q5 -12 9.5 -18t4.5 -14zM445 288q0 -8 -20.5 -40.5t-62.5 -80.5q-1 -1 -15.5 -14t-33.5 -28.5t-38 -28
t-29 -12.5q-15 0 -20.5 11.5t-7 29.5t-2.5 39t-7 40q-6 20 -16 32.5t-20 22t-17 18t-7 20.5q0 4 6 11.5t17 7.5q4 0 6 -1.5t6.5 -3.5t14 -3.5t28.5 -1.5q65 0 107.5 7t73.5 7q2 0 8 -2t12.5 -6t11.5 -10t5 -14z" />
    <glyph glyph-name="C" unicode="C" horiz-adv-x="530" 
d="M100 405q0 14 -7.5 28t-19.5 14q-17 0 -27 -12.5t-10 -29.5t4 -27t9 -15t9.5 -7l4.5 -2q12 0 24.5 15.5t12.5 35.5zM522 30q0 24 -20 46.5t-50.5 44t-66 42.5t-66 44t-50.5 48t-20 53q0 35 18.5 60.5t46.5 44t60 33t60 29t46.5 31t18.5 38.5q0 15 -7 29t-17 25t-22.5 18
t-22.5 7q-12 0 -33.5 -9.5t-47 -24.5t-53 -33t-50.5 -35t-40 -31t-22 -20q-16 -20 -28 -49.5t-20.5 -57t-12.5 -49t-4 -25.5q0 -23 9.5 -47.5t27.5 -48.5t45 -45.5t62 -39.5q57 -29 90.5 -52t54 -39.5t33.5 -25t30 -8.5q7 0 15.5 3.5t16.5 10t13.5 15t5.5 18.5zM82 243
q0 11 -6 17t-13 6q-11 0 -17 -6t-6 -13q0 -9 7 -18t12 -9q10 0 16.5 6t6.5 17z" />
    <glyph glyph-name="D" unicode="D" horiz-adv-x="560" 
d="M552 474q0 23 -18 47.5t-39.5 44.5t-39.5 33.5t-19 13.5q-32 20 -76 37t-88 30t-83.5 22t-62 13.5t-24.5 4.5q-20 0 -30 -4t-15 -12.5t-5.5 -20.5t-0.5 -28v-65q0 -11 -6 -21t-12.5 -20t-12.5 -19.5t-6 -18.5q0 -17 5 -24t11.5 -14t11.5 -18t5 -36v-48v-43v-42v-48
q0 -12 -3 -28t-6.5 -32.5t-6.5 -30.5t-3 -20q0 -28 10.5 -53.5t27 -44.5t36 -30t37.5 -11q13 0 33.5 11.5t44 30t48.5 42t47 47t40 45.5t28 37q16 26 20.5 45.5t16.5 33.5q52 64 80 102t40 58.5t13.5 26.5t1.5 7zM408 474q0 -20 -21 -43t-46 -47.5t-46 -49.5t-21 -50
q0 -12 3 -18t6 -10.5t6 -10t3 -16.5t-17 -34.5t-39 -48t-43.5 -43t-30.5 -18.5q-5 0 -9.5 12.5t-9.5 31.5t-9 41.5t-7 43t-5 36t-1 20.5l18 227q2 26 -1 41.5t-8 25.5t-9.5 17.5t-4.5 17.5q0 11 9.5 22t23.5 11q10 0 19 -8t22.5 -19.5t35 -24t57.5 -22.5q12 -3 33 -10
t41.5 -17.5t35.5 -24.5t15 -32zM204 242q-1 5 -0.5 9.5t0.5 9.5q0 6 -5.5 14.5t-12.5 8.5q-10 0 -17 -8t-7 -10q0 -7 4.5 -13.5t19.5 -10.5h18z" />
    <glyph glyph-name="E" unicode="E" horiz-adv-x="420" 
d="M412 24q0 21 -17.5 34t-40 21t-44 11t-28.5 3q-28 0 -42.5 -6.5t-22.5 -6.5q-20 0 -32.5 5t-19.5 11t-10 11l-3 5q0 9 4.5 15t9.5 10t9.5 7.5t4.5 9.5q0 13 -7 19.5t-16 16t-16 26t-7 49.5q0 20 8.5 31t32.5 11q29 0 59 -7t48 -7q17 0 34 12.5t17 33.5q0 14 -6.5 23
t-15 14t-17 7t-12.5 2q-3 0 -15.5 -2t-29 -4.5t-34 -4.5t-32.5 -2t-26.5 9t-19 23.5t-11.5 31.5t-4 33q0 31 20 44t50 17t64.5 2.5t64.5 1t50 13t20 38.5q0 25 -16 35.5t-30 10.5q-1 0 -43.5 -11.5t-132.5 -25.5q-13 -2 -38.5 -1t-51 -3t-44.5 -16t-19 -40q0 -12 10 -23.5
t22.5 -41t22.5 -87.5t10 -163v-112q0 -9 -3 -27.5t-1 -37t12.5 -32.5t37.5 -14q11 0 19.5 3t16 6.5t14.5 6.5t15 3q12 0 22.5 -6t26.5 -12.5t39.5 -12.5t59.5 -6q38 0 61 10.5t23 35.5z" />
    <glyph glyph-name="F" unicode="F" horiz-adv-x="465" 
d="M453 647q0 21 -15 36t-36 15l-315 -37q-9 -6 -21.5 -26.5t-23 -42t-18 -39l-7.5 -17.5q0 -15 5 -26.5t11.5 -20.5t11.5 -18t5 -19v-403q0 -17 9 -34t22.5 -31t29 -23t27.5 -9q9 0 19.5 6t19.5 16.5t15 23.5t6 28q0 22 -6 35t-14.5 21t-19 13.5t-19 12.5t-14.5 17.5
t-6 29.5q0 29 13 40t29 15.5t29 10t13 23.5q0 23 -14 28.5t-30.5 8.5t-30 10.5t-13.5 35.5l-0.5 7.5t2 16t9 15.5t21.5 7q24 0 35.5 -7t20.5 -7q11 0 19.5 5t14.5 11.5t9 13.5t3 12q0 21 -8.5 30.5t-21.5 13.5t-28 4t-28 2.5t-21.5 9.5t-8.5 24v51q0 34 10 48.5t32.5 18
t58 1t85.5 -2.5h83q20 0 35.5 11.5t15.5 34.5z" />
    <glyph glyph-name="G" unicode="G" horiz-adv-x="415" 
d="M261 366q0 3 -3 10t-8 14t-12 12.5t-14 5.5q-13 0 -29.5 -12t-16.5 -34q0 -17 6 -29.5t26 -12.5q12 0 21.5 5.5t16 13t10 15t3.5 12.5zM391 -88q2 8 -3.5 9t-5.5 5v199q0 32 -8.5 54.5t-19 36t-20.5 19.5t-12 6q-20 0 -36 -18t-36 -40t-46.5 -40t-67.5 -18
q-25 0 -47 16.5t-22 48.5q0 43 2 80.5t12.5 71t32 64.5t59.5 62q23 18 42 25.5l19 7.5q6 0 17 -3t22.5 -6.5t21.5 -6.5t13 -3q27 0 46 18.5t19 46.5q0 16 -1.5 35.5t-7.5 36.5t-18 28t-34 11q-24 0 -36.5 -13t-21 -29.5t-15.5 -32.5t-19 -22q-5 -3 -12 -3q-6 0 -16 -2.5
t-24.5 -9.5t-35.5 -22q-38 -27 -63.5 -58t-41.5 -59.5t-23 -50.5t-7 -32v-171q0 -22 14 -41t33.5 -32.5t40 -21t33.5 -7.5q20 0 39 5t34 11t25 11t13 5q18 0 25 -17t7 -29q0 -32 -7.5 -52.5t-19 -33t-24.5 -20t-24.5 -15t-19 -16.5t-7.5 -25q0 -5 4.5 -14t13 -17t19.5 -14
t24 -6q19 0 47.5 11t55.5 25.5t46.5 29t21.5 22.5z" />
    <glyph glyph-name="H" unicode="H" horiz-adv-x="430" 
d="M412 39q0 2 -2.5 21.5t-7 52t-9.5 65.5t-11 61.5t-11 40.5q-11 23 -26.5 36t-20.5 24q-11 29 -14.5 58.5t-7 53.5t-12.5 39.5t-31 15.5q-9 0 -16.5 -5t-13 -12.5t-8.5 -15.5t-3 -13q0 -12 4.5 -22t9.5 -19.5t9.5 -17.5t4.5 -15q0 -11 -7 -20t-17 -15t-21.5 -9t-19.5 -3
q-18 0 -30 21.5t-21.5 54t-17.5 70.5t-16.5 70.5t-19 54t-25.5 21.5q-13 0 -19 -3.5t-8.5 -9t-1.5 -12t1 -12.5q1 -35 1 -66v-63q0 -32 -0.5 -68t-0.5 -81q0 -12 -2 -41t-2.5 -65.5t1.5 -76t9 -72t21 -53.5t38 -21q41 0 64.5 19.5t23.5 45.5q0 18 -3.5 26t-8 15.5t-8 18
t-3.5 32.5q0 24 13.5 43.5t30 34t31.5 22t18 7.5q15 0 22.5 -20t12.5 -50.5t9.5 -66t12.5 -66t21.5 -50.5t36.5 -20t37 16t14 44z" />
    <glyph glyph-name="I" unicode="I" horiz-adv-x="140" 
d="M129 390q0 54 -6.5 91.5t-16 61.5t-20 35t-17.5 11q-6 0 -13.5 -4t-13.5 -10.5t-10.5 -15t-4.5 -16.5q0 -15 3.5 -28t8 -29.5t9 -40t7.5 -60.5l-42 -329q2 -9 4 -19.5t6.5 -19.5t12 -15t19.5 -6q19 0 26 11.5t9 35t3 59t8 84.5q11 81 19.5 134t8.5 70z" />
    <glyph glyph-name="J" unicode="J" horiz-adv-x="350" 
d="M139 583q0 17 -11 29t-31 12q-17 0 -31.5 -14t-14.5 -27q0 -5 3 -12t8 -13.5t13 -11.5t17 -5q17 0 32 12t15 30zM324 -11q0 25 -4.5 64.5t-9.5 80t-9.5 75t-4.5 49.5q0 9 -5 31t-14.5 50.5t-22 59t-26.5 56t-29.5 42t-31.5 16.5q-19 0 -28.5 -14.5t-9.5 -31.5
q0 -31 12.5 -68.5t27 -88t27 -115.5t12.5 -150q0 -14 -11.5 -25.5t-25.5 -11.5q-29 0 -48 9t-40 9q-17 0 -30 -7t-21.5 -16.5t-13 -20t-4.5 -16.5q0 -16 9 -28t22 -20.5t26 -12.5t21 -4h135q16 0 33 5.5t31 16.5t23.5 27.5t9.5 38.5z" />
    <glyph glyph-name="K" unicode="K" horiz-adv-x="380" 
d="M227 448q0 11 -8.5 19.5t-19.5 8.5q-9 0 -16 -7.5t-7 -16.5q0 -14 4.5 -20.5t18.5 -6.5q13 0 20.5 7.5t7.5 15.5zM366 360q0 14 -8.5 20.5t-23.5 11.5l-200 -79q-18 5 -25 27t-9.5 52.5t-2.5 64.5q0 35 -3 63.5t-11.5 47.5t-27.5 19q-12 0 -19.5 -8.5t-12.5 -20.5t-7 -26
t-2 -24q0 -15 5.5 -50t12 -78t11 -88t3.5 -81q-1 -29 -1 -53v-46q0 -21 0.5 -41.5t0.5 -44.5q0 -10 4.5 -20t11.5 -18t16 -13t19 -5t18.5 5.5t14.5 13.5t9.5 17t3.5 15q0 12 -3 31t-6 41t-6 44.5t-3 41.5q0 21 10.5 40.5t31.5 19.5q15 0 36.5 -14t44 -30.5t43 -30
t33.5 -13.5q9 0 21 4t12 24q0 21 -14.5 33.5t-32 22t-32 18.5t-14.5 23q0 15 16 22.5t35 14t35 16.5t16 31z" />
    <glyph glyph-name="L" unicode="L" horiz-adv-x="120" 
d="M104 154v417q0 9 -10 23t-22 14q-18 0 -27 -8.5t-12.5 -22t-3 -30t0.5 -32.5v-357l-23 -185q0 -21 4.5 -33.5t27.5 -12.5q13 0 23 16t17 40t12 52.5t8 54t4 43.5t1 21z" />
    <glyph glyph-name="M" unicode="M" horiz-adv-x="575" 
d="M568 -126q0 21 -8 35.5t-19 25t-21.5 20t-16.5 21.5q-5 10 -13.5 40t-18 64t-17.5 63t-11 37q-27 80 -46 135.5t-34.5 90.5t-29 50.5t-29.5 15.5q-18 0 -26.5 -13t-14 -28.5t-11 -28.5t-17.5 -13q-16 0 -20 16.5t-7 36.5t-11 36.5t-32 16.5q-17 0 -26.5 -9t-19 -31.5
t-23 -61t-38.5 -97.5q-3 -8 -11.5 -38t-17.5 -65.5t-15.5 -68.5t-6.5 -46q0 -33 10 -42t23 -9q20 0 31.5 20.5t17.5 51.5t9 67t7.5 67t12.5 51.5t24 20.5q14 0 23 -8t9 -24v-98q0 -12 5 -23t12.5 -19.5t15.5 -13t14 -4.5q25 0 36 14.5t15 37t3.5 48t1.5 48t9.5 37t26.5 14.5
q10 0 17.5 -11.5t11.5 -25.5t6 -25.5l2 -11.5q3 -12 11 -40t16.5 -57t15.5 -52t8 -27q16 -75 33.5 -122.5t34 -73.5t30.5 -35.5t23 -9.5q20 0 33 14t13 37z" />
    <glyph glyph-name="N" unicode="N" horiz-adv-x="505" 
d="M485 378q0 7 -4 17t-11.5 19.5t-17.5 16.5t-23 7q-19 0 -32.5 -17.5t-13.5 -37.5q0 -15 2 -25.5t5 -18t5 -13.5t2 -13v-176q0 -12 -8 -20t-15 -8q-12 0 -18.5 7.5t-9.5 18.5t-5 25t-5 28l-64 167q-17 67 -35 112t-35 72.5t-31.5 39.5t-24.5 12q-27 0 -38.5 -16t-15 -38.5
t-3 -47t-3.5 -42.5l-28 -88v-18q0 -17 -0.5 -39.5t-1.5 -43.5t-2 -28q-4 -18 -11 -35t-14 -32.5t-12 -29t-5 -24.5q0 -16 10.5 -29t26.5 -13t25 8t14 19.5t7.5 23t4.5 19.5q19 60 22.5 112t5 90t6.5 59.5t26 21.5t27 -19.5t15 -50.5q5 -18 8.5 -28t7 -18.5t8 -18.5t11 -26.5
t16 -43.5t23.5 -69q25 -75 43 -125t32.5 -80t28.5 -42t31 -12q31 0 38.5 19.5t7.5 54.5v116q0 77 4.5 134t9.5 94t9.5 55z" />
    <glyph glyph-name="O" unicode="O" horiz-adv-x="570" 
d="M555 268q0 59 -9 91.5t-21 51.5t-25.5 32t-22.5 33q-6 13 -9.5 28.5t-12.5 28.5t-27 22t-53 9t-75.5 -14t-81 -40t-78.5 -62t-67.5 -79t-47 -92t-17.5 -102q0 -38 12.5 -69.5t36 -54t56 -35t72.5 -12.5h106q54 0 102 20.5t84 56t57 83.5t21 104zM472 263
q0 -49 -17.5 -83.5t-45 -56t-62.5 -31.5t-70 -10h-97q-20 0 -31.5 9t-17 23t-6.5 31.5t-1 34.5q0 24 12 52.5t31.5 57.5t44 56t50.5 47.5t50.5 33t43.5 12.5q34 0 56 -15.5t35.5 -41t19 -57t5.5 -62.5zM305 254q0 9 -4 20.5t-24 11.5q-7 0 -12 -4t-8.5 -9t-5.5 -9.5t-2 -5.5
q0 -11 7.5 -19t20.5 -8q12 0 20 4.5t8 18.5z" />
    <glyph glyph-name="P" unicode="P" horiz-adv-x="485" 
d="M472 521q0 35 -24.5 60.5t-62 42.5t-82.5 27t-86 15t-73 6.5t-43 1.5q-29 0 -43 -21t-22 -53l14 -190q3 -41 1 -63t-5 -33.5t-6.5 -16.5t-3.5 -12v-98q0 -49 -3.5 -78t-8 -45.5t-8 -24.5t-3.5 -14q0 -25 16.5 -42.5t39.5 -17.5q9 0 19.5 2.5t19.5 9t15 18t6 30.5
q0 15 -3.5 28t-8 22t-8 14t-3.5 6v185q0 23 4.5 39.5t18.5 16.5q7 0 10.5 -1.5t6.5 -3.5t7 -3.5t13 -1.5q14 0 20 4t10 10.5t9 16.5t17 21.5t35 25.5t62 29q35 13 63.5 21t48.5 16t30.5 19t10.5 32zM370 544q0 -16 -12.5 -22.5t-32 -9.5t-42 -7t-43.5 -16q-33 -18 -50 -32.5
t-26 -25t-15 -16t-16 -5.5q-6 0 -9.5 6t-3.5 12q-1 36 -1 57v33t0.5 18t0.5 13q0 18 2.5 26.5t8 12t12.5 3.5h18q2 0 22 -1.5t51.5 -5t62 -8.5t52 -13t21.5 -19z" />
    <glyph glyph-name="Q" unicode="Q" horiz-adv-x="510" 
d="M493 316q1 16 0.5 57t-0.5 86q0 33 -10.5 60.5t-36 47t-67 30.5t-104.5 11t-112.5 -11t-83 -41t-51 -83.5t-17.5 -138.5q0 -33 3 -61.5t12.5 -52.5t29 -45t52.5 -40q36 -21 74 -30t69 -15t50.5 -15.5t19.5 -32.5q0 -14 -8.5 -23.5t-19 -18t-19 -18t-8.5 -23.5q0 -8 4 -16
t10 -15t13.5 -11.5t14.5 -4.5q13 0 30.5 11t33.5 26t27 30.5t11 25.5q0 18 -6 30.5t-13 22.5t-13 19t-6 21q0 5 9 19.5t22 35t28.5 44.5t29 46.5t22.5 42t10 30.5zM414 320q0 -3 -8.5 -22t-21.5 -40.5t-28.5 -39.5t-29.5 -18q-15 0 -25 13t-19.5 28.5t-21.5 28.5t-31 13
q-11 0 -22 -10.5t-11 -21.5q0 -3 4.5 -11.5t9.5 -18.5l9.5 -19t4.5 -12l-7.5 -9t-20.5 -9l-16.5 6t-36.5 22.5t-36.5 45t-16.5 74.5q0 55 4 94.5t21.5 65t53 37.5t97.5 12q30 0 56.5 -2t47 -10.5t32.5 -25t12 -46.5v-125zM326 404q0 18 -12.5 25t-15.5 7q-11 0 -19.5 -8.5
t-8.5 -19.5t8.5 -19.5t19.5 -8.5q9 0 18.5 7t9.5 17z" />
    <glyph glyph-name="R" unicode="R" horiz-adv-x="545" 
d="M540 37q0 22 -8.5 35t-26 25.5t-43.5 29.5t-61 49q-45 41 -77 62t-52 32t-29 17.5t-9 18.5q0 17 15 25.5t38 15t49 13t49 19t38 34t15 56.5q0 5 -2.5 16t-8 23.5t-15.5 24t-25 19.5q-1 1 -23 5.5t-54 10.5t-68.5 13t-68 13l-52.5 10l-21 4q-23 0 -38 -10t-23 -23
t-11 -26.5t-3 -19.5v-218q0 -18 -6.5 -19.5t-6.5 -3.5v-27v-54v-73v-83q0 -20 3.5 -30.5t11.5 -15t21 -5t33 -0.5q3 0 14 -2t23.5 -1.5t22.5 5t10 17.5q0 18 -12 22.5t-25 7.5t-20.5 11t1.5 33v403q0 14 12.5 25.5t24.5 11.5q2 0 19.5 -3t42 -8t53 -12t52.5 -14t40 -14
t16 -13q0 -19 -16 -31t-40.5 -21t-52.5 -16.5t-52.5 -17.5t-40.5 -23.5t-16 -34.5q0 -24 16 -42t41.5 -36.5t58 -41.5t65.5 -56q24 -24 38.5 -37t22.5 -20t11.5 -10t5.5 -7q2 -3 4 -19t9 -33.5t22 -31.5t44 -14q24 0 44.5 17t20.5 43z" />
    <glyph glyph-name="S" unicode="S" horiz-adv-x="525" 
d="M513 235q0 28 -20 47t-50 32.5t-64.5 24.5t-64.5 22.5t-50 26.5t-20 37q0 8 0.5 15.5t3.5 13.5t10 9.5t19 3.5q7 0 21.5 -2t32.5 -5t37 -5t34 -2q20 0 35.5 4.5t15.5 27.5q0 12 -8 21t-18 15t-20 8.5t-14 2.5h-139q-27 0 -54 -3.5t-49 -14t-36 -30t-14 -50.5
q0 -29 19.5 -49.5t49 -36t63.5 -29t63.5 -28.5t49 -34t19.5 -45q0 -14 -19 -37.5t-44.5 -46t-52.5 -39t-42 -16.5q-16 0 -27.5 8t-22 17.5t-22.5 17.5t-30 8q-8 0 -23 -6t-30.5 -17.5t-27 -29t-11.5 -40.5q0 -9 2.5 -18.5t9.5 -18t20 -14t33 -5.5q24 0 52 5.5t56.5 14.5
t55.5 19.5t49 19.5t36.5 16t18.5 9q60 28 94 59t50 57t19.5 43zM156 221q0 7 -4.5 15t-11.5 15t-16.5 11.5t-18.5 4.5q-27 0 -46 -15t-19 -36q0 -24 10.5 -32.5t31.5 -8.5q16 0 29.5 4.5t23.5 11.5t15.5 15t5.5 15z" />
    <glyph glyph-name="T" unicode="T" horiz-adv-x="570" 
d="M552 613q0 20 -17.5 28.5t-37.5 8.5q-19 0 -50.5 -5.5t-67 -14l-71 -17t-62.5 -14.5q-29 -6 -69.5 -9.5t-77.5 -11t-63 -24t-26 -48.5q0 -14 14 -22t32.5 -12.5t36 -6t24.5 -1.5q23 0 38.5 10t30.5 22.5t34 22.5t50 10q32 0 32 -28v-153q0 -6 -2 -16.5t-5 -23.5t-5 -26.5
t-2 -25.5q0 -20 4.5 -36.5t9.5 -31t9.5 -26.5t4.5 -22q0 -25 -9.5 -54.5t-9.5 -52.5q0 -15 6 -33t16.5 -33.5t24 -25.5t28.5 -10q20 0 35 10.5t24.5 27t14 37.5t4.5 41q0 34 -11 52t-23.5 29.5t-23.5 19t-11 20.5q0 1 2 11.5t5 24.5t5 27.5t2 19.5q0 20 -4.5 40t-9.5 35.5
t-9.5 25.5l-4.5 10q-2 26 -2 45t0.5 35t1 31t0.5 33q0 29 13.5 41.5t34.5 16.5t44.5 3.5t44.5 2t34.5 11.5t13.5 32z" />
    <glyph glyph-name="U" unicode="U" horiz-adv-x="590" 
d="M577 246v97q0 35 -3.5 72t-12.5 67.5t-24 50t-38 19.5q-20 0 -35.5 -15t-15.5 -41q0 -29 9 -77t9 -108q0 -40 -13.5 -69.5t-35.5 -50t-49 -33.5t-54 -20.5t-50.5 -10t-38.5 -2.5q-9 0 -28 2t-38.5 5t-34.5 5l-15 2q-5 4 -13 19.5t-15.5 35t-12.5 39t-5 31.5q0 39 6 66.5
t14.5 45.5t18 28t17.5 13q-11 13 -20.5 27t-19 25.5t-19.5 19t-20 7.5q-22 0 -30 -16t-8.5 -35t2.5 -35l3 -16v-69v-61v-61v-69q0 -41 14 -66.5t39 -39.5t60 -18.5t77 -4.5q78 0 147 25.5t121 62t82 78.5t30 75z" />
    <glyph glyph-name="V" unicode="V" horiz-adv-x="395" 
d="M385 669q0 17 -8 31.5t-29 14.5q-23 0 -35.5 -26.5t-18 -60t-6 -64t-0.5 -39.5q0 -28 -3 -62.5t-6.5 -65t-6.5 -51l-3 -20.5v-102q0 -16 -6.5 -33.5t-20.5 -17.5q-11 0 -17.5 8t-11 19.5t-7.5 24t-6 22.5q-3 9 -15 31t-28.5 50t-35 57.5t-35.5 54.5t-30 41t-18 16
q-13 0 -25.5 -7t-12.5 -25q0 -24 8 -39.5t26.5 -42t47.5 -72t71 -129.5q22 -44 34.5 -91t24 -87t26.5 -65.5t41 -25.5q27 0 36 12.5t9 27.5q0 14 -4 26.5l-4 12.5v79q0 1 2.5 27.5t6.5 71.5t9 97t10 106t9 97.5t6.5 71.5t2.5 29q1 7 5 20t8 27.5t7 28.5t3 22z" />
    <glyph glyph-name="W" unicode="W" horiz-adv-x="590" 
d="M585 593q0 12 -6 25t-16 24t-22.5 18.5t-24.5 7.5q-28 0 -49 -22t-21 -53q0 -15 3.5 -26.5t8 -22t8 -20t3.5 -19.5q0 -14 -3.5 -45.5t-8 -63.5t-8 -56.5l-3.5 -24.5q-11 -48 -15 -83t-7.5 -57.5t-8 -33.5t-15.5 -11q-18 0 -26.5 20.5t-13.5 51.5t-8 67t-9.5 67
t-17.5 51.5t-32 20.5q-12 0 -21.5 -7t-16 -17.5t-10 -23.5t-3.5 -26q0 -12 2 -32t5 -38.5t5 -32l2 -13.5q0 -18 -10 -32.5t-18 -14.5q-12 0 -20 11t-13 27.5t-8 37t-5.5 39.5t-5.5 34.5t-8 22.5q-11 15 -26 23.5t-25 22.5q-4 6 -9 25t-13 39t-19.5 36t-28.5 16
q-37 0 -37 -37q0 -2 5.5 -21t14 -50t16.5 -60.5t14 -50.5t6 -22q8 -11 16.5 -18.5t17.5 -14.5l18 -14t17 -18q25 -34 38 -66.5t19.5 -62t9.5 -54t8 -43t15 -28.5t31 -10q22 0 34 13.5t19.5 30t13 30.5t16.5 14q4 0 10.5 -6t14 -12.5t14.5 -12.5t12 -6q24 0 36 12.5
t22.5 45.5t24 89.5t38.5 144.5q9 30 14.5 68.5t8.5 73t4 58l1 23.5q2 6 9.5 16t15.5 22.5t14.5 26t6.5 27.5z" />
    <glyph glyph-name="X" unicode="X" horiz-adv-x="595" 
d="M594 -5q0 17 -20.5 39t-51.5 47.5t-67.5 54.5t-67.5 60t-51.5 64.5t-20.5 67.5q0 20 13 42.5t29 46.5t29 49.5t13 51.5q0 19 -7 35t-30 16t-38.5 -10.5t-27 -26.5t-19.5 -34.5t-17 -34.5t-20 -26.5t-27 -10.5q-14 0 -33.5 21t-42 46t-46 46t-44.5 21q-15 0 -21.5 -6.5
t-6.5 -25.5q0 -24 22.5 -46.5t49 -44.5t49 -42t22.5 -39q0 -49 -20 -76.5t-44.5 -47t-44.5 -36.5t-20 -44q0 -15 7.5 -27.5t17.5 -21.5t20 -14.5t15 -5.5q27 0 39.5 15t19.5 35t13.5 39t20.5 27q3 2 18.5 3t32.5 6q23 7 32 12.5l9 5.5q10 0 18 -9t15 -21.5t12.5 -25
t10.5 -18.5q22 -32 39 -49.5t30.5 -28.5t24.5 -19.5t22 -22.5q4 -5 7 -22t10.5 -36t21.5 -34t40 -15q13 0 25 6.5t21 16.5t14 22.5t5 24.5z" />
    <glyph glyph-name="Y" unicode="Y" horiz-adv-x="440" 
d="M440 571q0 7 -4 15.5t-10 15.5t-14.5 11.5t-17.5 4.5q-20 0 -32.5 -10t-21.5 -24.5t-15.5 -30.5t-13.5 -28q-30 -51 -48 -86t-30 -56t-20 -30t-18 -9q-19 0 -27 9t-11.5 25t-6.5 37.5t-12 46t-27 51.5t-51 54q-13 11 -22.5 19t-28.5 8q-13 0 -25 -8t-12 -19l23 -56
q12 -47 25 -67.5t27 -32t29 -24t31 -43.5q17 -34 30 -63t21.5 -57.5t13 -58.5t4.5 -67q0 -17 -3.5 -29.5t-8 -23.5t-8 -22.5t-3.5 -26.5q0 -26 8 -44.5t19.5 -30t24.5 -17t22 -5.5q11 0 22.5 5t21 14.5t15.5 22.5t6 28t-8 36t-17.5 48.5t-17.5 60.5t-8 72q0 21 8 48t18.5 54
t21.5 51t17 38q18 42 41 69.5t44 47.5t35 37.5t14 39.5z" />
    <glyph glyph-name="Z" unicode="Z" horiz-adv-x="620" 
d="M613 11q0 29 -12 46.5t-30.5 27.5t-42 13t-45.5 3.5t-40.5 -1t-28.5 -0.5q-2 0 -23 3.5t-54 10.5t-64.5 15.5t-54 18.5t-22.5 21q0 13 9 26t20.5 24.5t23 21.5t17.5 16q72 80 113 131.5t61.5 81.5t25 42t4.5 14q0 28 -23 44t-52 16h-320q-25 0 -44.5 -22.5t-19.5 -51.5
q0 -13 4.5 -27t13 -25.5t21.5 -19t30 -7.5q25 0 39.5 13t24 29t18 29t20.5 13h148q14 0 26 -7.5t12 -15.5q0 -9 -19.5 -31.5t-49 -53.5t-64 -67.5t-64 -72t-49 -68t-19.5 -55.5t14 -37t31 -21.5t33 -10.5t20 -5q10 -5 18 -14.5t17.5 -20.5t24 -23t37.5 -21q4 -1 29 -6
t57 -11t65 -12t53.5 -9.5t22.5 -3.5q24 0 40.5 6.5t27 16t15.5 19.5t5 18z" />
    <glyph glyph-name="backslash" unicode="\" horiz-adv-x="615" 
d="M56 572q-23 0 -23 -24q0 -11 8.5 -21.5t19.5 -19.5t20.5 -15.5t11.5 -7.5q28 -23 48.5 -40t40 -34.5t42 -39t54.5 -53.5q20 -20 52.5 -46.5t67.5 -52.5t67.5 -49.5t51.5 -37t21 -14.5q11 0 21.5 10.5t10.5 17.5q0 12 -5.5 20.5t-14.5 15t-19.5 12t-20.5 12.5
q-8 5 -15.5 11t-26 20t-53 41.5t-95.5 76.5q-40 32 -80.5 70t-75.5 71t-63.5 55t-44.5 22z" />
    <glyph glyph-name="asciicircum" unicode="^" horiz-adv-x="565" 
d="M492 609q0 15 -10.5 27.5t-27 24.5t-36 23t-37.5 23q-43 27 -74.5 42t-44.5 19t-15 4q-14 0 -27 -7t-26.5 -19t-28 -27t-30.5 -31q-24 -24 -41.5 -39t-28.5 -25t-16.5 -17.5t-5.5 -15.5q0 -23 23 -23q21 0 45.5 19.5t50 43t50.5 43t48 19.5q28 0 57.5 -19t55.5 -41.5
t47.5 -41.5t34.5 -19q20 0 28.5 12.5t8.5 24.5z" />
    <glyph glyph-name="underscore" unicode="_" 
d="M433 -91q0 8 -13 15t-33 12t-43 8.5t-43 6t-34 3.5l-14 1h-177q-17 0 -27 -9.5t-10 -17.5q0 -4 8.5 -16t28.5 -12h153l153 -19q17 0 34 4t17 24z" />
    <glyph glyph-name="grave" unicode="`" horiz-adv-x="215" 
d="M65 628q-23 0 -32 -14.5t-9 -32.5q0 -23 15 -45t36 -40t43 -29t36 -11q17 0 29 11t12 31q0 23 -17 46t-39.5 42t-43.5 30.5t-30 11.5z" />
    <glyph glyph-name="a" unicode="a" horiz-adv-x="605" 
d="M594 9q0 19 -6.5 35.5t-14.5 33t-14.5 34.5t-6.5 40q0 29 7 50.5t7 23.5q0 19 -8.5 29.5t-20.5 21t-24.5 24.5t-20.5 41q-2 5 -2.5 12.5t-3.5 22t-9 36.5t-18 55q-26 71 -43 116t-29.5 70.5t-22.5 35t-21 9.5q-19 0 -28 -10t-17 -36.5t-20 -71t-37 -113.5
q-23 -64 -49 -103.5t-48 -64.5t-36.5 -40t-14.5 -29q0 -54 -14 -91t-30.5 -64.5t-30 -50.5t-13.5 -49q0 -8 7.5 -20t15.5 -12q16 0 26 8t20.5 29t26 59t43.5 98q11 24 27 39.5t34.5 24.5t38 12t39.5 3h68t53.5 -4.5t41.5 -15t32 -31.5t22.5 -54t17 -64t18 -53.5t25.5 -22.5
q10 0 21.5 13t11.5 24zM436 319q0 -46 -42 -46h-97q-7 0 -16.5 2.5t-18.5 7.5t-15 13t-6 19q0 1 4.5 13t11 28.5t15 36t16.5 37.5q11 25 16.5 46t10 35.5t10.5 22.5t18 8t24 -15.5t22 -38.5t19 -50.5t15 -52.5t9.5 -43.5t3.5 -22.5z" />
    <glyph glyph-name="b" unicode="b" horiz-adv-x="420" 
d="M405 203q0 11 -3.5 31t-9 40t-11 37t-8.5 22q-12 18 -31.5 28.5t-38 18.5t-32.5 17t-14 24q0 16 21.5 29t48 28t48 34t21.5 48q0 32 -22 56.5t-55.5 42.5t-72.5 30t-72.5 19.5t-56 11t-23.5 3.5q-20 0 -31 -1.5t-16 -7t-6.5 -17t-1.5 -30.5v-97q0 -29 -4.5 -55
t-9.5 -46.5t-9.5 -34t-4.5 -17.5q0 -15 3.5 -24.5t8 -21.5t8 -32t3.5 -57q0 -60 -4.5 -100t-9.5 -66.5t-9.5 -42.5t-4.5 -27q0 -30 16.5 -47.5t34.5 -17.5h98q61 0 107.5 24.5t78 59.5t48 73t16.5 65zM294 542l-5.5 -9.5t-21 -21t-43.5 -21t-74 -9.5q-24 0 -36.5 10
t-18 23.5t-5.5 27.5v23q0 35 14 61.5t46 26.5q17 0 42 -12t47.5 -29t38.5 -36t16 -34zM340 231q0 -15 -7.5 -21.5t-19 -8.5t-24.5 -2t-24.5 -1.5t-19 -7t-7.5 -19.5q0 -8 4.5 -16.5t9.5 -17.5t9.5 -18t4.5 -18q0 -1 -5 -10.5t-17 -20.5t-32.5 -20t-52.5 -9q-24 0 -38 16.5
t-20.5 38t-8.5 42t-2 28.5v130q0 32 18 51t47 19q37 0 71 -15t59 -36t40 -44t15 -40z" />
    <glyph glyph-name="c" unicode="c" horiz-adv-x="540" 
d="M399 328q0 10 -4 16.5t-9 10t-9.5 4.5t-5.5 1q-8 0 -20 -8t-12 -19q0 -14 11.5 -23.5t16.5 -9.5q8 0 20 7t12 21zM534 31q0 16 -10 28.5t-24 22t-29 16.5t-25 12q-71 35 -124 60.5t-88 46.5t-53 40.5t-18 42.5q0 9 3.5 16t8 13.5t8 12.5t3.5 14q0 19 -11.5 25t-25.5 9
t-25.5 7.5t-11.5 18.5q0 10 12 19t30.5 17t41 15.5t44 13t38 9t24.5 5.5q63 15 101 20.5t59 8.5t28 7t7 15q0 10 -5.5 17t-14.5 11.5t-20 6.5t-21 2q-36 0 -79 -9.5t-87 -24t-85.5 -32.5t-74.5 -35.5t-55 -32.5t-27 -24q-3 -6 -6 -19.5t-6 -31t-4.5 -37t-1.5 -37.5
q0 -49 20.5 -77.5t51 -46.5t66.5 -30t66 -27q71 -36 116.5 -59t75 -36.5t46.5 -19t31 -5.5q23 0 37 10.5t14 21.5zM154 36q0 11 -10.5 19.5t-17.5 8.5q-12 0 -20 -8t-8 -15q0 -12 10 -20t22 -8q9 0 16.5 6t7.5 17z" />
    <glyph glyph-name="d" unicode="d" horiz-adv-x="555" 
d="M551 309q0 24 -20 51.5t-50 56.5t-65 57.5t-65 52.5q-3 2 -28 19.5t-59 40.5t-68.5 47t-56.5 39t-24 16q-15 0 -28.5 -7.5t-23.5 -19.5t-16 -26.5t-6 -29.5l18 -97l-51 -464q2 -8 4 -18t7.5 -18.5t17 -14t31.5 -5.5q7 0 29.5 7.5t51.5 19t60.5 24.5t58 24.5t43.5 19
l17 7.5q63 31 105.5 67t68.5 67.5t37.5 54.5t11.5 29zM472 300q0 -4 -9 -19.5t-27.5 -36t-47.5 -43t-69 -40.5q-65 -29 -101.5 -46.5t-55.5 -26.5t-27 -12t-16 -3q-12 0 -24.5 13.5t-12.5 41.5l24 246q1 15 8 25.5t15 19.5l16 18t12 21q3 11 2.5 27.5t1.5 32t9.5 26.5
t27.5 11q13 0 46.5 -28t102.5 -88q15 -13 36.5 -30t41 -35.5t33.5 -37.5t14 -36z" />
    <glyph glyph-name="e" unicode="e" 
d="M493 609q0 8 -12 14.5t-30.5 10.5t-39.5 6.5t-39.5 3.5t-31.5 1.5t-14 0.5h-158q-37 0 -67.5 -7t-52.5 -19t-34.5 -28t-12.5 -34v-352q0 -4 1.5 -17t3.5 -28t3.5 -26.5t1.5 -12.5v-125q0 -8 5 -15.5t12.5 -13t15 -9t13.5 -3.5l88 13h232q7 0 22.5 -2.5t31 -2t27.5 6
t12 22.5q0 14 -14 23t-28 9h-302q-23 0 -41.5 20.5t-18.5 49.5q0 24 12.5 35.5t27 19.5t27 16.5t12.5 25.5q0 11 -9.5 26.5t-9.5 29.5q0 20 19 30.5t47 15.5t61.5 7.5t61.5 7.5t47 15t19 30q0 17 -10 26.5t-25 14t-32 5.5t-30 1q-28 0 -49.5 -1.5t-38.5 -3.5t-31.5 -3.5
t-28.5 -1.5q-4 0 -17 -1t-26.5 3t-24.5 15t-11 34q0 17 7 37.5t28.5 38t62 27t106.5 4.5q14 -1 37 1.5t48.5 6.5t51.5 10.5t47.5 13.5t34.5 14t13 14z" />
    <glyph glyph-name="f" unicode="f" horiz-adv-x="435" 
d="M430 638q0 13 -14.5 20.5t-36 11t-46 4.5t-43.5 1h-134q-39 0 -61 -15t-33.5 -39.5t-14.5 -55.5t-3 -63t0.5 -62t-4.5 -52q-17 -81 -29.5 -166t-12.5 -163q0 -27 13 -48.5t34 -21.5q19 0 31.5 10.5t20.5 27.5t13 40t10 47.5t12 49.5t19 47q9 16 9.5 31.5t4 28.5t15 21
t41.5 8q17 0 37 0.5t37.5 4.5t29.5 12.5t12 23.5q0 9 -6 18t-15.5 16.5t-22.5 12t-26 4.5h-102q-21 0 -40.5 14t-19.5 37q0 12 8 26t18 26.5t19 22.5t11 13q12 20 13.5 35t5 24.5t15.5 14.5t44 5h130q9 0 19.5 0.5t20 3.5t15.5 8.5t6 15.5z" />
    <glyph glyph-name="g" unicode="g" horiz-adv-x="550" 
d="M531 -77v306q0 14 -13 25t-33 18.5t-43 12.5t-43 8t-34 4t-15 1q-16 0 -30 -7.5t-24.5 -18t-17 -22.5t-6.5 -21q0 -27 17.5 -38t38 -17t38 -13t17.5 -25q0 -12 -6 -20t-14.5 -13t-18 -7t-17.5 -2q-26 0 -46.5 4.5t-37.5 9.5t-31.5 9.5t-28.5 4.5q-29 0 -44.5 -7l-15.5 -7
q-26 0 -40.5 22.5t-14.5 84.5q0 59 21.5 107.5t51.5 83.5t61.5 59t51.5 34.5t22 11.5q22 0 37.5 -10t30 -22.5t30.5 -22.5t37 -10q20 0 35.5 7t26 18t16 24.5t5.5 25.5q0 20 -14 35t-33.5 24.5t-41 14t-36.5 4.5q-33 0 -72.5 -13t-80 -37.5t-78 -59t-67 -77.5t-47 -92.5
t-17.5 -104.5q0 -51 18 -93t50 -72t75.5 -46t93.5 -16h143q18 0 30 -12t12 -35q0 -26 -13 -40.5t-34 -23t-46 -13t-48.5 -9.5t-43 -12.5t-28.5 -21.5h278q4 18 10.5 31.5t12.5 25t10 22t4 23.5z" />
    <glyph glyph-name="h" unicode="h" horiz-adv-x="510" 
d="M496 148q0 27 -3.5 48t-8 37t-8 26.5t-3.5 17.5t3 18.5t6.5 24t6.5 22.5t3 14q0 14 -2 42.5t-8.5 57.5t-18.5 50.5t-32 21.5q-21 0 -33.5 -22t-12.5 -48q0 -25 3 -44.5t6.5 -36t6.5 -31.5t3 -31q0 -8 -1 -16.5t-5.5 -16.5t-13 -13t-22.5 -5q-5 0 -34 7t-63.5 17t-63.5 21
t-34 19q-10 16 -9 26t4.5 13t4.5 3v121q0 22 -2 43t-7.5 37.5t-14.5 26t-22 9.5q-20 0 -27.5 -12.5t-11 -43t-9 -82.5t-22.5 -131q-5 -23 -6.5 -41.5t-2 -37t-1.5 -37.5t-4 -42q-1 -8 -6 -22t-11 -30.5t-10.5 -34.5t-4.5 -33q0 -13 2.5 -27t9.5 -25.5t20 -19t33 -7.5
q37 0 48.5 23.5t11.5 59.5v84q0 14 2 31t9.5 31.5t22 24.5t40.5 10q17 0 48.5 -4.5t62 -17.5t53 -36.5t22.5 -61.5v-112q0 -40 12 -64t34 -24q21 0 33 24t18 58.5t7.5 73t1.5 67.5z" />
    <glyph glyph-name="i" unicode="i" horiz-adv-x="330" 
d="M234 702q0 9 -9 20.5t-19 11.5q-16 0 -24.5 -10t-8.5 -18q0 -9 7.5 -16.5t13.5 -11.5t7 -4t8.5 2.5t16 9t8.5 16.5zM53 655q0 14 -11.5 23.5t-16.5 9.5q-9 0 -18.5 -10.5t-9.5 -17.5q0 -9 10 -18.5t18 -9.5t18 9t10 14zM322 526q0 6 -4 12.5t-10 12t-12.5 9t-10.5 3.5
q-13 0 -25.5 -12t-12.5 -25q0 -20 13 -31t25 -11q6 0 12.5 4.5t12 11.5t9 14t3.5 12zM178 48q0 11 0.5 14t0.5 6q0 4 0.5 12.5t0.5 30.5q0 23 -0.5 64t-1.5 110q-5 287 -46 287q-12 0 -17 -6.5t-6.5 -15.5t-1 -18.5t0.5 -15.5q0 -58 3.5 -94t6.5 -49t4 -14v-237
q0 -28 1 -54.5t4.5 -47.5t11 -33.5t20.5 -12.5q19 0 24.5 5t4.5 14.5t-5.5 23.5t-4.5 31z" />
    <glyph glyph-name="j" unicode="j" horiz-adv-x="455" 
d="M445 489q0 7 -21 24t-46.5 34t-46.5 30.5l-21 13.5q-11 0 -17 -2t-11.5 -4.5t-12.5 -4.5t-19 -3q-23 -2 -48.5 -2.5t-48 -5t-37 -14.5t-14.5 -29q0 -12 6 -21t16 -15t21 -9.5t22 -5.5q51 -11 77.5 -23.5t38 -27t13.5 -32t5 -38.5q3 -23 10 -60.5t14 -77t12.5 -75
t5.5 -56.5q0 -8 -1 -19.5t-6.5 -22.5t-17 -19t-31.5 -8q-21 0 -44 18t-52.5 40t-67 40t-86.5 18q-12 0 -21.5 -4.5t-16 -10.5t-10 -12.5t-3.5 -9.5q0 -21 18 -36.5t42 -26t48 -17t36 -9.5q67 -19 110.5 -35t60.5 -16q18 0 36 6t33 20t24 37t9 58q0 58 -8 102t-17.5 80
t-17.5 67.5t-8 65.5q0 29 14.5 42t32 20t32 13.5t14.5 22.5z" />
    <glyph glyph-name="k" unicode="k" horiz-adv-x="450" 
d="M438 85q0 21 -20.5 40.5t-44.5 38t-44.5 37t-20.5 36.5q0 17 10 27.5t22.5 19t22.5 18t10 24.5q0 18 -15.5 26t-33.5 12.5t-33.5 9.5t-15.5 16q0 15 19 26t41.5 21.5t41.5 22t19 28.5q0 14 -9.5 21t-18.5 7q-23 0 -53 -19.5t-62.5 -43.5t-65 -43.5t-60.5 -19.5
q-17 0 -26 5.5t-12.5 14t-3.5 17.5v19q0 43 0.5 78t-0.5 70q0 17 -8.5 27.5t-19.5 10.5q-14 0 -20 -11t-7.5 -26t-0.5 -30.5t1 -25.5v-144q0 -2 -2 -18.5t-5 -35t-5 -35t-2 -18.5q0 -38 7 -63t7 -52q0 -20 -3 -40t-6.5 -37.5t-6.5 -31.5t-3 -21q0 -17 6.5 -34t26.5 -17
q18 0 25.5 21t9.5 52.5t2.5 68t5 68t15.5 52.5t34 21q13 0 37.5 -15t50.5 -35.5t51 -42.5t40 -36t16 -15q5 -6 13.5 -19t19 -26.5t22.5 -23.5t24 -10q14 0 21 11.5t7 21.5zM234 94q0 11 -8 21.5t-16 10.5q-7 0 -12.5 -6t-5.5 -12q0 -14 7 -23.5t16 -9.5q5 0 12 5.5t7 13.5z
" />
    <glyph glyph-name="l" unicode="l" horiz-adv-x="500" 
d="M488 125q0 5 -2 11.5t-8 12t-18 9.5t-32 4l-260 -37q-8 0 -18 1t-18 4t-13.5 9.5t-5.5 17.5q0 16 8.5 22.5t19 11.5t19 11.5t8.5 23.5q0 22 -12 27.5t-27 10.5t-27 16t-12 44q0 22 5 38.5t11 30t11 24.5t5 23v153q0 5 -3 14.5t-8.5 18.5t-14 15.5t-20.5 6.5
q-20 0 -33.5 -14t-13.5 -46v-450q0 -11 -3 -25.5l-6 -29t-6 -27.5t-3 -20q0 -27 14 -36.5t28 -9.5q15 0 23 4.5t27 12.5t58 18t114 21q32 4 69.5 9t69.5 13.5t53 22t21 34.5z" />
    <glyph glyph-name="m" unicode="m" horiz-adv-x="530" 
d="M416 604q0 11 -8.5 19.5t-19.5 8.5q-15 0 -24 -5.5t-9 -22.5q0 -10 8.5 -19t19.5 -9q14 0 23.5 7.5t9.5 20.5zM513 -26q0 3 -4 21t-10.5 42.5t-14 53t-14 53.5t-11.5 43.5t-6 22.5q-14 49 -17 91t-5 72t-10 47t-33 17q-18 0 -30.5 -18t-22 -44.5t-18 -58t-18.5 -58
t-23 -44.5t-32 -18q-13 0 -19.5 3.5t-10.5 11.5t-7 20t-9 30l-49.5 148.5t-31.5 93.5t-18.5 51t-11 20.5t-8.5 3t-11 -1.5q-25 0 -42.5 -22t-17.5 -47v-427q0 -9 3.5 -20.5t9.5 -22.5t14.5 -18.5t18.5 -7.5q22 0 32 16t10 30v134q0 12 4 22.5t9.5 18t11 11.5t7.5 4
q17 0 27 -15t17 -38t12 -49t11 -49t15 -38t25 -15q15 0 26.5 14.5t21 36t17.5 47t17.5 47t21 36t26.5 14.5q18 0 29 -22.5t18 -56.5t12.5 -74t12 -74t16.5 -56.5t27 -22.5q13 0 23 8t10 34z" />
    <glyph glyph-name="n" unicode="n" horiz-adv-x="540" 
d="M362 390q0 14 -8.5 21t-14.5 7q-14 0 -19 -7t-5 -17q0 -13 4.5 -20t19.5 -7q10 0 16.5 6t6.5 17zM529 121v144v83t-4.5 79t-16 59.5t-35.5 23.5q-17 0 -27 -14.5t-10 -31.5q0 -8 5 -24t11 -36t11 -41t5 -38v-260q0 -7 -2 -16.5t-6 -18t-11.5 -14.5t-17.5 -6q-14 0 -22 5
t-15.5 16.5t-16.5 30t-24 45.5q-35 64 -56.5 104t-33 63t-16 33t-5.5 13.5t-1.5 5t-3.5 8.5q-37 73 -52 134t-23.5 104t-18 67t-36.5 24q-15 0 -25 -11t-16 -27t-8 -33.5t-2 -30.5v-403q0 -20 -8 -39t-17.5 -38t-17.5 -39t-8 -42q0 -18 6 -31t14 -21.5t16.5 -12.5t14.5 -4
q19 0 33.5 14t24.5 33.5t15.5 38.5t5.5 30q0 8 -5 28t-11.5 55.5t-11.5 88t-5 124.5q0 26 9.5 41t23.5 15q15 0 24 -9.5t15.5 -27t12.5 -42.5t16.5 -54.5t27 -64t43.5 -71.5q41 -56 64.5 -106t40 -87t30.5 -58.5t36 -21.5q14 0 26 18.5t21 47t16 61.5t11.5 62.5t7 50.5
t2.5 24z" />
    <glyph glyph-name="o" unicode="o" horiz-adv-x="600" 
d="M583 267q0 43 -15.5 73t-38.5 51t-50.5 36t-50.5 28.5t-38.5 28t-15.5 34.5q0 14 6 24.5t12.5 19t12.5 15.5t6 15q0 7 -3.5 15t-19.5 8q-11 0 -20 -6.5t-18 -14.5t-19.5 -14.5t-25.5 -6.5q-17 0 -28.5 11t-21 24t-18.5 24t-20 11q-13 0 -20.5 -7.5t-7.5 -15.5
q0 -5 3.5 -13.5t8 -18t8 -18.5t3.5 -15q0 -25 -15 -32t-37.5 -15.5t-48 -29t-47.5 -72.5q-16 -38 -25.5 -72t-14 -60t-6 -42.5t-1.5 -19.5q0 -62 18 -101.5t52 -62t83.5 -31.5t111.5 -9q61 0 115.5 18.5t96 52t65.5 81.5t24 107zM518 258q0 -22 -14 -53.5t-42.5 -61
t-73.5 -50t-106 -20.5q-49 0 -86 6t-62.5 21.5t-38.5 42.5t-13 69q0 1 1.5 17.5t3.5 36.5t4.5 38.5t4.5 23.5q0 1 16.5 15.5t40.5 31.5t52 31t53 14q33 0 77.5 -9t85 -28.5t69 -50.5t28.5 -74zM305 258q0 14 -11.5 23.5t-16.5 9.5q-14 0 -23.5 -11.5t-9.5 -16.5
q0 -14 11.5 -23.5t16.5 -9.5q14 0 23.5 11.5t9.5 16.5z" />
    <glyph glyph-name="p" unicode="p" horiz-adv-x="510" 
d="M505 466q0 45 -31 78.5t-77 57.5t-100.5 40t-100.5 25.5t-77 13l-31 3.5q-23 0 -44 -14t-21 -37v-98l14 -213q3 -50 0 -82.5t-8 -58.5t-10 -50t-5 -55q0 -21 3 -37.5t13.5 -27.5t30.5 -17t55 -6q27 0 50.5 14t23.5 42q0 13 -3 19t-8.5 10.5t-13 10t-16.5 16.5t-18.5 30.5
t-19.5 52.5q-3 9 -6.5 20t-7.5 22.5t-6.5 21t-2.5 15.5q0 34 18 53t47 29.5t66.5 14t77 5.5t77 5.5t66.5 14t47 29.5t18 53zM431 484q0 -19 -25 -31.5t-59.5 -20t-71.5 -10.5t-62 -3q-34 0 -58.5 10.5t-40.5 29t-23.5 43t-7.5 52.5q0 29 14 44.5t37 15.5l22 -3.5t55 -11
t71.5 -18.5t71.5 -25.5t55 -32.5t22 -39z" />
    <glyph glyph-name="q" unicode="q" horiz-adv-x="730" 
d="M726 91q0 19 -7.5 37t-29.5 18q-19 0 -26.5 -10.5t-9.5 -25.5t-1 -33.5t-1.5 -33.5t-11 -25.5t-29.5 -10.5q-9 0 -18.5 5.5t-18 15.5t-13.5 22.5t-5 26.5q0 32 8 59t17.5 51t17.5 46t8 43q0 45 -20 86t-45 72.5t-47.5 52t-26.5 25.5q-42 42 -61.5 82t-30 71.5t-20.5 50.5
t-32 19q-9 0 -16 -7t-7 -16q0 -14 7 -28t7 -23q0 -21 -10.5 -31t-27.5 -16.5t-39 -13t-44 -18.5q-30 -16 -49 -36.5t-31 -39.5t-17.5 -34t-8.5 -20q-9 -17 -22 -42.5t-24.5 -61t-20 -81.5t-8.5 -102q0 -10 2.5 -23.5t6.5 -27t9 -25t10 -17.5q16 -20 47 -40.5t67.5 -37
t74 -27.5t66.5 -11q46 0 74.5 8.5t47.5 19t33.5 19.5t34.5 9q23 0 34 -13t20 -29t19.5 -29t33.5 -13q12 0 34.5 10t44.5 30t38.5 51t16.5 72zM532 262q0 -55 -14 -83t-47 -28q-16 0 -33 15t-34.5 38t-36.5 49t-38.5 49t-39.5 38t-40 15q-10 0 -20 -7t-18 -19t-13 -28t-5 -34
q0 -25 17 -42.5t42 -31.5t54.5 -25.5t54.5 -25t42 -30.5t17 -40q0 -7 -5.5 -16.5t-18 -18.5t-34 -15t-53.5 -6q-31 0 -71 12t-76 34t-60.5 54t-24.5 72q0 22 5.5 58t17.5 77t30 83t43.5 76t58 55.5t72.5 21.5q31 0 65 -34.5t79 -86.5q21 -24 36.5 -42t26 -36.5t16 -41.5
t5.5 -56z" />
    <glyph glyph-name="r" unicode="r" horiz-adv-x="500" 
d="M494 393q0 25 -13.5 45t-32 35t-39.5 26t-36 19q-20 10 -48 19t-58 17t-60 14t-54.5 10.5t-40 7t-17.5 2.5q-13 0 -26.5 -4t-23.5 -13t-15 -23t0 -34v-200l-18 -250v-14q0 -11 2.5 -24.5t9 -24.5t20.5 -11q8 0 14.5 5.5t10.5 13t6 15t2 12.5v112q0 14 -0.5 28.5t2 26.5
t10.5 20t25 8q21 0 40 -18t33.5 -40t23.5 -40l9 -18q17 -32 34.5 -55.5t32.5 -40.5t27 -29.5t18 -22.5l16.5 -27.5t15 -22t16 -15t21.5 -5.5q4 0 11.5 3.5t14 10t11.5 15t5 18.5q0 17 -10 29t-24 22t-30 18.5t-29 18.5q-22 18 -35 35.5t-22 35.5t-16.5 35t-18.5 33
q-6 8 -19.5 22.5t-13.5 32.5q0 22 11.5 30.5t30.5 10.5t44 2t52.5 6t55 22t52.5 50q1 1 6 9.5t11 20t6 16.5zM429 143q0 18 -12 27.5t-20 9.5q-9 0 -23 -9t-14 -23q0 -18 11.5 -28t25.5 -10q8 0 20 5.5t12 27.5zM415 389q0 -19 -18 -31.5t-46 -20t-61.5 -10.5t-64.5 -3
q-53 0 -81.5 4.5t-41.5 15.5t-14.5 28.5t-1.5 43.5q0 19 1.5 37.5t7.5 33t18 23t33 8.5q7 0 29.5 -4t52.5 -11.5t63 -19t60.5 -25.5t45.5 -31.5t18 -37.5z" />
    <glyph glyph-name="s" unicode="s" horiz-adv-x="515" 
d="M498 525q0 30 -23 47t-55 25.5t-67 10t-59 1.5q-47 0 -94.5 -20.5t-86.5 -52t-63.5 -70t-24.5 -75.5q0 -23 12.5 -39t31.5 -27.5t41 -18.5t41 -10.5t32 -5l13 -1.5h112q18 0 32.5 -10.5t24.5 -26.5t15.5 -35.5t5.5 -38.5q0 -36 -9.5 -66t-25 -51.5t-34.5 -33.5t-37 -12
q-22 0 -41.5 14t-38 34.5t-35 44.5t-32.5 44.5t-31.5 34.5t-30.5 14q-13 0 -25 -12t-12 -30q0 -27 15.5 -52t40 -48t53 -42t55 -32.5t46.5 -21.5t26 -8q35 0 65.5 19t53 46.5t35.5 58t13 52.5v102q0 45 -25.5 67.5t-63.5 32t-82.5 11.5t-82.5 6.5t-63.5 16.5t-25.5 42
q0 31 25.5 57t59.5 45.5t69 30.5t55 11q26 0 38 -7t17 -18t6 -23.5t5 -23.5t13.5 -18t31.5 -7q15 0 30 5t27 14.5t19.5 22t7.5 27.5zM294 154q0 15 -11 26t-26 11q-20 0 -33.5 -16t-13.5 -30q0 -11 6.5 -21.5t26.5 -10.5q7 0 16 4t16.5 10t13 13.5t5.5 13.5z" />
    <glyph glyph-name="t" unicode="t" horiz-adv-x="655" 
d="M642 601q0 17 -15.5 29.5t-35.5 12.5q-8 0 -14.5 -1.5t-18 -4.5t-29.5 -8t-48.5 -11t-75.5 -14t-110 -17q-40 -6 -88.5 -12.5t-90.5 -17.5t-70.5 -28t-28.5 -44q0 -14 12 -20.5t29 -6.5q16 0 27.5 2t22 4.5t20.5 4.5t23 2q23 0 36 -10t15 -41l-74 -398q4 -26 16 -41
t26 -15q19 0 32 20.5t22 49.5t14.5 62t9.5 58q66 37 100.5 58.5t48 34t11 19.5t-11 15t-18 21.5t-9.5 37.5q0 21 -8 35.5t-17.5 26t-17.5 23t-8 26.5q0 23 24 36t60 21t78 13.5t78 14.5t60 23.5t24 39.5z" />
    <glyph glyph-name="u" unicode="u" horiz-adv-x="525" 
d="M252 429q0 4 -0.5 10.5t-3.5 12.5t-10 10t-19 4q-14 0 -25.5 -8.5t-11.5 -23.5q0 -16 11 -29t22 -13q14 0 25.5 11.5t11.5 25.5zM511 587v10q0 8 -3.5 16t-11 14t-22.5 6q-10 0 -20 -5.5t-23.5 -26.5t-31.5 -63.5t-45 -117.5q-24 -67 -40 -110.5t-26 -69.5t-14 -36.5
l-4 -10.5q-3 -6 -7.5 -20t-12 -28t-19.5 -24.5t-30 -10.5q-14 0 -27.5 20t-24.5 48t-18.5 56.5t-8.5 46.5q-3 40 -9 65t-12.5 44t-11 37t-4.5 44v79q0 15 -4.5 30.5t-23.5 15.5q-14 0 -20 -9.5t-8 -23t-2 -30.5q0 -16 -2 -29q-5 -30 -9 -53t-6.5 -40t-2.5 -29t4 -22v-306
q0 -20 14 -34t35 -23.5t45.5 -14.5t45.5 -8t35.5 -3.5l14.5 -0.5q48 0 81.5 30t56 73t36 91.5t21.5 84.5q5 22 15 52.5t23 64t26.5 68t25 64.5t18.5 53.5t7 35.5z" />
    <glyph glyph-name="v" unicode="v" horiz-adv-x="510" 
d="M492 636q0 18 -7 34.5t-30 16.5q-24 0 -37 -13t-25 -46t-27.5 -90.5t-45.5 -147.5q-26 -76 -34.5 -133.5t-13 -95.5t-11.5 -57.5t-29 -19.5q-19 0 -26 11t-13 38.5t-17 74t-36 117.5q-29 80 -41.5 128t-20 73t-14 32.5t-22.5 7.5q-12 0 -17.5 -8t-5.5 -20q0 -16 6 -43
t15.5 -59.5t21 -66.5t22 -63.5t18 -52t10.5 -30.5q31 -108 53 -169t38 -90t27 -35.5t21 -6.5q22 0 34 24.5t18 61.5t9 80t8 80q2 15 5.5 23t7 14t6.5 10.5t5 12.5v11v23t0.5 27t3.5 22q7 23 19.5 40t24.5 31t21 25.5t9 24.5q0 39 11 66t24 49.5t24 43t11 45.5zM418 228
q0 12 -7.5 15t-15.5 3q-9 0 -18.5 -4.5t-9.5 -13.5t6 -16t17 -7t19.5 4t8.5 19z" />
    <glyph glyph-name="w" unicode="w" horiz-adv-x="615" 
d="M595 692q0 22 -14 34.5t-28 12.5q-20 0 -29.5 -11.5t-17.5 -40t-18 -78t-32 -125.5q-13 -46 -15.5 -91.5t-5 -82t-10 -59t-30.5 -22.5q-20 0 -30.5 22.5t-16 56.5t-8.5 74t-8.5 74t-16 56.5t-31.5 22.5q-4 0 -12 -4t-15.5 -11.5t-13 -18t-5.5 -22.5v-102q0 -9 2.5 -31
t1.5 -45.5t-9 -41t-28 -17.5q-13 0 -22.5 13.5t-15.5 30t-9.5 30.5t-3.5 15q-3 9 -12 28.5t-19.5 41t-20 41t-13.5 28.5q-9 22 -16.5 45.5t-15.5 43t-18 32.5t-24 13q-10 0 -16.5 -8.5t-9 -15.5t-2.5 -8q0 -23 6 -39.5t20.5 -43.5t37.5 -73t57 -127q24 -58 31.5 -106.5
t12 -83.5t12 -54.5t32.5 -19.5q19 0 29 15.5t15.5 38.5t8.5 50t8 50t14 38.5t27 15.5q15 0 23 -14t12.5 -31.5t5.5 -33t1 -18.5q0 -48 -9.5 -80.5t-9.5 -54.5q0 -29 15 -44.5t32 -15.5q24 0 33 13.5t12 36.5t5.5 53t13.5 64q3 9 9.5 32t14.5 49.5t15.5 53.5t12 43t4.5 17
q13 91 26 152.5t25 101.5t22 62.5t17.5 35.5t12 20t4.5 17z" />
    <glyph glyph-name="x" unicode="x" horiz-adv-x="435" 
d="M431 282q0 17 -12 29.5t-30 12.5q-16 0 -28.5 -4.5t-24.5 -9.5t-24.5 -9.5t-28.5 -4.5q-17 0 -27.5 8.5t-10.5 28.5q0 21 16 41t35 39.5t35 39t16 38.5q0 32 -37 32q-28 0 -49 -16.5t-39 -37t-34.5 -37t-34.5 -16.5q-23 0 -41 25.5t-34 56t-31 56t-33 25.5
q-11 0 -17.5 -11t-6.5 -17q0 -18 16.5 -45t37 -56.5t37 -59t16.5 -52.5t-14 -45t-30.5 -43.5t-30 -43t-13.5 -45.5q0 -15 9 -26t28 -11q17 0 33.5 15.5t32 33.5t30 33.5t29.5 15.5q14 0 32 -17t36.5 -43t37 -56t35 -56t29.5 -43t20 -17q8 0 18 3.5t10 24.5t-19 49.5
t-41.5 58t-41 55.5t-18.5 41q60 5 85 9.5t27 8t-11.5 6t-29.5 4.5t-28 3t-6 1q16 0 25.5 -2t17 -5t14.5 -5t17 -2q19 0 35 9.5t16 32.5z" />
    <glyph glyph-name="y" unicode="y" horiz-adv-x="535" 
d="M525 678q0 6 -0.5 14t-3.5 15t-9.5 12t-18.5 5q-20 0 -43.5 -25t-48 -63t-49 -81.5t-47.5 -81.5t-42.5 -63t-34.5 -25t-28 15t-26 38t-26 49t-29 49t-34.5 38t-41.5 15q-8 0 -18 -7.5t-10 -15.5q0 -14 8 -21.5t22.5 -21t35 -39t45.5 -75.5q12 -23 26 -42.5t26.5 -38
t22.5 -37.5t13 -40q11 -77 20.5 -133t20.5 -92.5t24.5 -54t32.5 -17.5q16 0 29 12.5t13 29.5q0 18 -12.5 34.5t-27 37.5t-27 50t-12.5 73q0 18 4 31t10.5 25t16 25t20.5 30q2 3 6 13t9 24t11.5 30t14.5 30q6 11 20.5 33t32 49t36 57t34 57t25.5 49t10 34z" />
    <glyph glyph-name="z" unicode="z" 
d="M479 549q0 21 -15 32t-41.5 16t-62 8t-76.5 9q-1 0 -23.5 1.5t-53 3.5t-62.5 4t-52 3.5t-22 1.5q-34 2 -56.5 -9t-22.5 -28q0 -23 26.5 -26.5t66.5 2.5q8 1 29.5 0.5t48.5 -2t56.5 -4t54.5 -4.5t42 -4.5t19 -3.5q8 -5 13.5 -13t5.5 -15q0 -12 -7 -21.5t-17.5 -17t-24 -14
t-26.5 -12.5q-86 -40 -138 -69t-80 -51.5t-37 -41t-9 -37.5q0 -22 12 -43t31 -39.5t41 -34.5t42.5 -28t35.5 -20t19 -11q55 -35 95 -55t67 -30.5t40.5 -13.5t15.5 -3q20 0 37.5 10.5t17.5 30.5q0 15 -8 26.5t-20.5 19.5t-28 13.5t-31.5 10.5q-7 2 -28.5 11.5t-50 23.5
t-59.5 32t-57 37t-43 37.5t-17 34.5q0 23 13 39t29 25.5t29 14l13 4.5q25 13 60.5 35t69 44.5t58.5 40t30 20.5q2 1 13.5 8t24.5 21t13 31z" />
    <glyph glyph-name="nonbreakingspace" unicode="&#xa0;" horiz-adv-x="500" 
 />
    <glyph glyph-name="macron" unicode="&#xaf;" 
d="M468 719q0 8 -13 15t-33 12t-43 8.5t-43 6t-34 3.5l-14 1h-177q-17 0 -27 -9.5t-10 -17.5q0 -4 8.5 -16t28.5 -12h153l153 -19q17 0 34 4t17 24z" />
    <glyph glyph-name="macron" unicode="&#x2c9;" 
d="M468 719q0 8 -13 15t-33 12t-43 8.5t-43 6t-34 3.5l-14 1h-177q-17 0 -27 -9.5t-10 -17.5q0 -4 8.5 -16t28.5 -12h153l153 -19q17 0 34 4t17 24z" />
    <glyph glyph-name="circumflex" unicode="&#x2c6;" horiz-adv-x="565" 
d="M532 614q0 15 -10.5 27.5t-27 24.5t-36 23t-37.5 23q-43 27 -74.5 42t-44.5 19t-15 4q-14 0 -27 -7t-26.5 -19t-28 -27t-30.5 -31q-24 -24 -41.5 -39t-28.5 -25t-16.5 -17.5t-5.5 -15.5q0 -23 23 -23q21 0 45.5 19.5t50 43t50.5 43t48 19.5q28 0 57.5 -19t55.5 -41.5
t47.5 -41.5t34.5 -19q20 0 28.5 12.5t8.5 24.5z" />
    <glyph glyph-name="Delta" unicode="&#x394;" horiz-adv-x="810" 
d="M794 329q0 36 -12.5 63t-27 48.5t-27 38t-12.5 31.5q0 17 5 24.5t14 11t22 7.5t29 13v14h-74q-16 -5 -31 -4.5t-27 6t-19 14.5t-7 21q0 18 10.5 31.5t25 25t30.5 21t27 19.5v10q-27 -10 -47.5 -23.5t-37 -26t-30.5 -21t-29 -8.5q-14 0 -25.5 11.5t-11.5 29.5q0 14 5.5 26
t13.5 24.5t16.5 28t15.5 37.5h-28q-2 -6 -7.5 -26.5t-17.5 -43.5t-31.5 -41t-49.5 -18q-13 0 -26.5 3.5t-24 10.5t-17 17.5t-6.5 23.5q0 12 8 26t19 34v14h-32q0 -36 -15 -57t-36 -21q-11 0 -18.5 7.5t-13 18.5t-8 25t-2.5 27h-23q1 -9 3.5 -27.5t1 -37t-8.5 -32.5t-24 -14
q-8 0 -24 9t-32.5 24.5t-29.5 35.5t-16 42h-51q5 -17 22.5 -32t36 -31t33.5 -34.5t15 -41.5q0 -4 -12.5 -22t-31 -45t-40 -60t-40 -67.5t-31 -68t-12.5 -61.5v-116q0 -54 11.5 -94.5t37.5 -70t68.5 -49t104.5 -32.5q24 -5 36 -8.5t18.5 -6t9.5 -4.5t8.5 -2.5t16.5 -1
t32 -0.5q60 0 108.5 11t90 32.5t77.5 54.5t72 78q42 53 62.5 99t20.5 100zM711 353q0 -30 -11 -69t-31 -75.5t-48.5 -66.5t-62.5 -42q9 18 20.5 43.5t22.5 50.5t21.5 45.5t18.5 29.5v33h-28q-4 -8 -19 -31.5t-35 -52t-43 -55t-42 -38.5q-3 -2 -13.5 -5t-23 -6t-24.5 -5
t-18 -2q-25 0 -48 16t-44 38t-40 44.5t-34 35.5h-24v-37q27 -31 54.5 -59.5t58 -50t66.5 -34.5t81 -13q16 0 31.5 8.5t38.5 17.5l-8.5 -10.5t-31 -23.5t-62 -23.5t-102.5 -10.5q-57 0 -101 24t-74.5 60t-46 77t-15.5 75v112q0 24 9.5 54.5t26.5 63t40.5 64t51.5 56
t60.5 39.5t66.5 15q60 0 98.5 -11t61.5 -25t33.5 -27t15.5 -16q6 -5 20 -10t31 -13.5t35 -22t33 -35.5t24.5 -54.5t9.5 -77.5zM567 482q0 32 -7.5 44t-24.5 12q-12 0 -22.5 -6.5t-18 -16.5t-11.5 -22t-4 -24q0 -24 14 -40t28 -16q11 0 19.5 6.5t14.5 17t9 22.5t3 23z
M307 455q0 17 -6.5 28.5t-15 18.5t-17 10t-12.5 3q-20 0 -30.5 -14t-10.5 -37q0 -11 3.5 -22.5t9.5 -21t14.5 -15.5t18.5 -6q7 0 15 4.5t15 12t11.5 18t4.5 21.5zM433 306q0 11 -6 19.5t-18 8.5q-11 0 -19 -12t-8 -20q0 -12 4.5 -20t18.5 -8q11 0 19.5 10t8.5 22z" />
    <glyph glyph-name="quoteleft" unicode="&#x2018;" horiz-adv-x="215" 
d="M161 585q-20 23 -42 32t-40 9q-23 0 -32.5 -15.5t-9.5 -36.5t7.5 -43t18.5 -35q14 -17 35.5 -29t41.5 -12q23 0 31.5 17t8.5 39q0 23 -6 44t-13 30z" />
    <glyph glyph-name="quoteright" unicode="&#x2019;" horiz-adv-x="215" 
d="M198 585q0 23 -14.5 32t-32.5 9q-23 0 -45 -15.5t-40 -36.5t-29 -43t-11 -35q0 -17 11 -29t31 -12q23 0 46 17t42 39.5t30.5 43.5t11.5 30z" />
    <glyph glyph-name="quotedblleft" unicode="&#x201c;" horiz-adv-x="295" 
d="M76 668q-2 3 -7.5 7.5t-12 9t-13.5 8t-13 3.5q-11 0 -11.5 -10.5t3.5 -24.5t10 -29.5t8 -24.5q11 -57 19.5 -82t15.5 -33q10 -11 23 -19.5t25 -8.5q9 0 9 11q0 12 -4 27.5t-10 32t-9 26.5q-13 41 -17.5 68t-14.5 39h-1zM290 547q-11 13 -23 20.5t-19 7.5q-11 0 -17 -13.5
t-7.5 -31.5t1.5 -36t10 -26q12 -14 29.5 -25.5t39.5 -11.5q12 0 16 8.5t2.5 21t-6.5 27.5t-11 27.5t-10.5 21.5t-5.5 10h1z" />
    <glyph glyph-name="quotedblright" unicode="&#x201d;" horiz-adv-x="295" 
d="M164 668q0 6 -6 17t-17 11t-20 -10.5t-17 -24.5t-15 -29.5t-13 -24.5q-36 -57 -48.5 -82t-12.5 -33q0 -11 6 -19.5t18 -8.5q9 0 19.5 11.5t19.5 27t17 32t13 26.5q20 41 38 68t18 39zM275 547q0 13 -6 20.5t-13 7.5q-11 0 -28 -13.5t-33 -31.5t-28 -36t-12 -26
q0 -14 7.5 -25.5t29.5 -11.5q18 0 33 17.5t26.5 39t17.5 40t6 19.5z" />
  </font>
</defs>
</svg>
